<mxfile host="Electron" modified="2024-07-15T16:08:03.476Z" agent="Mozilla/5.0 (Windows NT 10.0; Win64; x64) AppleWebKit/537.36 (KHTML, like Gecko) draw.io/22.0.0 Chrome/114.0.5735.289 Electron/25.8.3 Safari/537.36" etag="22oDOnG1_KMwLwOTjoIw" version="22.0.0" type="device" pages="4">
  <diagram name="Class" id="p9zoDYAlDjhE9k44D2_U">
    <mxGraphModel dx="2508" dy="3020" grid="1" gridSize="10" guides="1" tooltips="1" connect="1" arrows="1" fold="1" page="1" pageScale="1" pageWidth="850" pageHeight="1100" math="0" shadow="0">
      <root>
        <mxCell id="0" />
        <mxCell id="1" parent="0" />
        <mxCell id="52U4ZKikLbj1_XuYDyp7-1" value="&lt;span style=&quot;color: rgba(0, 0, 0, 0); font-family: monospace; font-size: 0px; text-align: start; text-wrap: nowrap;&quot;&gt;%3CmxGraphModel%3E%3Croot%3E%3CmxCell%20id%3D%220%22%2F%3E%3CmxCell%20id%3D%221%22%20parent%3D%220%22%2F%3E%3CmxCell%20id%3D%222%22%20value%3D%22ControllerBase%22%20style%3D%22html%3D1%3BwhiteSpace%3Dwrap%3B%22%20vertex%3D%221%22%20parent%3D%221%22%3E%3CmxGeometry%20x%3D%221970.75%22%20y%3D%222190%22%20width%3D%22216.25%22%20height%3D%2250%22%20as%3D%22geometry%22%2F%3E%3C%2FmxCell%3E%3CmxCell%20id%3D%223%22%20value%3D%22UsersController%22%20style%3D%22swimlane%3BfontStyle%3D0%3BchildLayout%3DstackLayout%3Bhorizontal%3D1%3BstartSize%3D26%3BfillColor%3Dnone%3BhorizontalStack%3D0%3BresizeParent%3D1%3BresizeParentMax%3D0%3BresizeLast%3D0%3Bcollapsible%3D1%3BmarginBottom%3D0%3BwhiteSpace%3Dwrap%3Bhtml%3D1%3B%22%20vertex%3D%221%22%20parent%3D%221%22%3E%3CmxGeometry%20x%3D%221622.25%22%20y%3D%222350%22%20width%3D%22300%22%20height%3D%22170%22%20as%3D%22geometry%22%2F%3E%3C%2FmxCell%3E%3CmxCell%20id%3D%224%22%20value%3D%22%26lt%3Bdiv%20style%3D%26quot%3Btext-align%3A%20center%3B%26quot%3B%26gt%3B%2B%20UsersController()%26lt%3B%2Fdiv%26gt%3B%26lt%3Bb%20style%3D%26quot%3Bborder-color%3A%20var(--border-color)%3B%20text-align%3A%20center%3B%26quot%3B%26gt%3B%26lt%3Bbr%26gt%3B%26lt%3B%2Fb%26gt%3B%22%20style%3D%22text%3BstrokeColor%3Dnone%3BfillColor%3Dnone%3Balign%3Dleft%3BverticalAlign%3Dtop%3BspacingLeft%3D4%3BspacingRight%3D4%3Boverflow%3Dhidden%3Brotatable%3D0%3Bpoints%3D%5B%5B0%2C0.5%5D%2C%5B1%2C0.5%5D%5D%3BportConstraint%3Deastwest%3BwhiteSpace%3Dwrap%3Bhtml%3D1%3B%22%20vertex%3D%221%22%20parent%3D%223%22%3E%3CmxGeometry%20y%3D%2226%22%20width%3D%22300%22%20height%3D%2224%22%20as%3D%22geometry%22%2F%3E%3C%2FmxCell%3E%3CmxCell%20id%3D%225%22%20value%3D%22%2B%20GetAll()%20%3A%20ActionResult%26amp%3Blt%3BIEnumerable%26amp%3Blt%3BUserModel%26amp%3Bgt%3B%26amp%3Bgt%3B%3B%22%20style%3D%22text%3BstrokeColor%3Dnone%3BfillColor%3Dnone%3Balign%3Dleft%3BverticalAlign%3Dtop%3BspacingLeft%3D4%3BspacingRight%3D4%3Boverflow%3Dhidden%3Brotatable%3D0%3Bpoints%3D%5B%5B0%2C0.5%5D%2C%5B1%2C0.5%5D%5D%3BportConstraint%3Deastwest%3BwhiteSpace%3Dwrap%3Bhtml%3D1%3B%22%20vertex%3D%221%22%20parent%3D%223%22%3E%3CmxGeometry%20y%3D%2250%22%20width%3D%22300%22%20height%3D%2230%22%20as%3D%22geometry%22%2F%3E%3C%2FmxCell%3E%3CmxCell%20id%3D%226%22%20value%3D%22%2B%20Create(UserCreateModel)%20%3A%20ActionResult%3B%22%20style%3D%22text%3BstrokeColor%3Dnone%3BfillColor%3Dnone%3Balign%3Dleft%3BverticalAlign%3Dtop%3BspacingLeft%3D4%3BspacingRight%3D4%3Boverflow%3Dhidden%3Brotatable%3D0%3Bpoints%3D%5B%5B0%2C0.5%5D%2C%5B1%2C0.5%5D%5D%3BportConstraint%3Deastwest%3BwhiteSpace%3Dwrap%3Bhtml%3D1%3B%22%20vertex%3D%221%22%20parent%3D%223%22%3E%3CmxGeometry%20y%3D%2280%22%20width%3D%22300%22%20height%3D%2230%22%20as%3D%22geometry%22%2F%3E%3C%2FmxCell%3E%3CmxCell%20id%3D%227%22%20value%3D%22%2B%20Update(UserModel)%20%3A%20ActionResult%22%20style%3D%22text%3BstrokeColor%3Dnone%3BfillColor%3Dnone%3Balign%3Dleft%3BverticalAlign%3Dtop%3BspacingLeft%3D4%3BspacingRight%3D4%3Boverflow%3Dhidden%3Brotatable%3D0%3Bpoints%3D%5B%5B0%2C0.5%5D%2C%5B1%2C0.5%5D%5D%3BportConstraint%3Deastwest%3BwhiteSpace%3Dwrap%3Bhtml%3D1%3B%22%20vertex%3D%221%22%20parent%3D%223%22%3E%3CmxGeometry%20y%3D%22110%22%20width%3D%22300%22%20height%3D%2230%22%20as%3D%22geometry%22%2F%3E%3C%2FmxCell%3E%3CmxCell%20id%3D%228%22%20value%3D%22%2B%20Delete(UserDeleteModel)%20%3A%20ActionResult%22%20style%3D%22text%3BstrokeColor%3Dnone%3BfillColor%3Dnone%3Balign%3Dleft%3BverticalAlign%3Dtop%3BspacingLeft%3D4%3BspacingRight%3D4%3Boverflow%3Dhidden%3Brotatable%3D0%3Bpoints%3D%5B%5B0%2C0.5%5D%2C%5B1%2C0.5%5D%5D%3BportConstraint%3Deastwest%3BwhiteSpace%3Dwrap%3Bhtml%3D1%3B%22%20vertex%3D%221%22%20parent%3D%223%22%3E%3CmxGeometry%20y%3D%22140%22%20width%3D%22300%22%20height%3D%2230%22%20as%3D%22geometry%22%2F%3E%3C%2FmxCell%3E%3CmxCell%20id%3D%229%22%20value%3D%22Extends%22%20style%3D%22endArrow%3Dblock%3BendSize%3D16%3BendFill%3D0%3Bhtml%3D1%3Brounded%3D0%3BentryX%3D0%3BentryY%3D0.5%3BentryDx%3D0%3BentryDy%3D0%3BexitX%3D0.5%3BexitY%3D0%3BexitDx%3D0%3BexitDy%3D0%3B%22%20edge%3D%221%22%20source%3D%223%22%20target%3D%222%22%20parent%3D%221%22%3E%3CmxGeometry%20x%3D%22-0.4608%22%20width%3D%22160%22%20relative%3D%221%22%20as%3D%22geometry%22%3E%3CmxPoint%20x%3D%221787%22%20y%3D%222540%22%20as%3D%22sourcePoint%22%2F%3E%3CmxPoint%20x%3D%221947%22%20y%3D%222540%22%20as%3D%22targetPoint%22%2F%3E%3CArray%20as%3D%22points%22%3E%3CmxPoint%20x%3D%221772%22%20y%3D%222215%22%2F%3E%3C%2FArray%3E%3CmxPoint%20as%3D%22offset%22%2F%3E%3C%2FmxGeometry%3E%3C%2FmxCell%3E%3CmxCell%20id%3D%2210%22%20value%3D%22%C2%ABinterface%C2%BB%26lt%3Bbr%26gt%3B%26lt%3Bb%26gt%3BILogger%26amp%3Blt%3BUsersController%26amp%3Bgt%3B%26lt%3B%2Fb%26gt%3B%22%20style%3D%22html%3D1%3BwhiteSpace%3Dwrap%3B%22%20vertex%3D%221%22%20parent%3D%221%22%3E%3CmxGeometry%20x%3D%221372%22%20y%3D%222195%22%20width%3D%22205%22%20height%3D%2250%22%20as%3D%22geometry%22%2F%3E%3C%2FmxCell%3E%3CmxCell%20id%3D%2211%22%20value%3D%22%C2%ABinterface%C2%BB%26lt%3Bbr%26gt%3B%26lt%3Bb%26gt%3BIUsersService%26lt%3B%2Fb%26gt%3B%22%20style%3D%22html%3D1%3BwhiteSpace%3Dwrap%3B%22%20vertex%3D%221%22%20parent%3D%221%22%3E%3CmxGeometry%20x%3D%221372%22%20y%3D%222270%22%20width%3D%22205%22%20height%3D%2250%22%20as%3D%22geometry%22%2F%3E%3C%2FmxCell%3E%3CmxCell%20id%3D%2212%22%20value%3D%22Use%22%20style%3D%22endArrow%3Dopen%3BendSize%3D12%3Bdashed%3D1%3Bhtml%3D1%3Brounded%3D0%3BentryX%3D1%3BentryY%3D0.5%3BentryDx%3D0%3BentryDy%3D0%3BexitX%3D0.25%3BexitY%3D0%3BexitDx%3D0%3BexitDy%3D0%3B%22%20edge%3D%221%22%20source%3D%223%22%20target%3D%2210%22%20parent%3D%221%22%3E%3CmxGeometry%20x%3D%22-0.28%22%20width%3D%22160%22%20relative%3D%221%22%20as%3D%22geometry%22%3E%3CmxPoint%20x%3D%221787%22%20y%3D%222440%22%20as%3D%22sourcePoint%22%2F%3E%3CmxPoint%20x%3D%221947%22%20y%3D%222440%22%20as%3D%22targetPoint%22%2F%3E%3CArray%20as%3D%22points%22%3E%3CmxPoint%20x%3D%221697%22%20y%3D%222220%22%2F%3E%3C%2FArray%3E%3CmxPoint%20as%3D%22offset%22%2F%3E%3C%2FmxGeometry%3E%3C%2FmxCell%3E%3CmxCell%20id%3D%2213%22%20value%3D%22Use%22%20style%3D%22endArrow%3Dopen%3BendSize%3D12%3Bdashed%3D1%3Bhtml%3D1%3Brounded%3D0%3BentryX%3D0.5%3BentryY%3D1%3BentryDx%3D0%3BentryDy%3D0%3BexitX%3D0%3BexitY%3D0.118%3BexitDx%3D0%3BexitDy%3D0%3BexitPerimeter%3D0%3B%22%20edge%3D%221%22%20source%3D%223%22%20target%3D%2211%22%20parent%3D%221%22%3E%3CmxGeometry%20x%3D%220.5776%22%20width%3D%22160%22%20relative%3D%221%22%20as%3D%22geometry%22%3E%3CmxPoint%20x%3D%221787%22%20y%3D%222500%22%20as%3D%22sourcePoint%22%2F%3E%3CmxPoint%20x%3D%221947%22%20y%3D%222500%22%20as%3D%22targetPoint%22%2F%3E%3CArray%20as%3D%22points%22%3E%3CmxPoint%20x%3D%221477%22%20y%3D%222370%22%2F%3E%3C%2FArray%3E%3CmxPoint%20as%3D%22offset%22%2F%3E%3C%2FmxGeometry%3E%3C%2FmxCell%3E%3C%2Froot%3E%3C%2FmxGraphModel%3E&lt;/span&gt;&lt;span style=&quot;color: rgba(0, 0, 0, 0); font-family: monospace; font-size: 0px; text-align: start; text-wrap: nowrap;&quot;&gt;%3CmxGraphModel%3E%3Croot%3E%3CmxCell%20id%3D%220%22%2F%3E%3CmxCell%20id%3D%221%22%20parent%3D%220%22%2F%3E%3CmxCell%20id%3D%222%22%20value%3D%22ControllerBase%22%20style%3D%22html%3D1%3BwhiteSpace%3Dwrap%3B%22%20vertex%3D%221%22%20parent%3D%221%22%3E%3CmxGeometry%20x%3D%221970.75%22%20y%3D%222190%22%20width%3D%22216.25%22%20height%3D%2250%22%20as%3D%22geometry%22%2F%3E%3C%2FmxCell%3E%3CmxCell%20id%3D%223%22%20value%3D%22UsersController%22%20style%3D%22swimlane%3BfontStyle%3D0%3BchildLayout%3DstackLayout%3Bhorizontal%3D1%3BstartSize%3D26%3BfillColor%3Dnone%3BhorizontalStack%3D0%3BresizeParent%3D1%3BresizeParentMax%3D0%3BresizeLast%3D0%3Bcollapsible%3D1%3BmarginBottom%3D0%3BwhiteSpace%3Dwrap%3Bhtml%3D1%3B%22%20vertex%3D%221%22%20parent%3D%221%22%3E%3CmxGeometry%20x%3D%221622.25%22%20y%3D%222350%22%20width%3D%22300%22%20height%3D%22170%22%20as%3D%22geometry%22%2F%3E%3C%2FmxCell%3E%3CmxCell%20id%3D%224%22%20value%3D%22%26lt%3Bdiv%20style%3D%26quot%3Btext-align%3A%20center%3B%26quot%3B%26gt%3B%2B%20UsersController()%26lt%3B%2Fdiv%26gt%3B%26lt%3Bb%20style%3D%26quot%3Bborder-color%3A%20var(--border-color)%3B%20text-align%3A%20center%3B%26quot%3B%26gt%3B%26lt%3Bbr%26gt%3B%26lt%3B%2Fb%26gt%3B%22%20style%3D%22text%3BstrokeColor%3Dnone%3BfillColor%3Dnone%3Balign%3Dleft%3BverticalAlign%3Dtop%3BspacingLeft%3D4%3BspacingRight%3D4%3Boverflow%3Dhidden%3Brotatable%3D0%3Bpoints%3D%5B%5B0%2C0.5%5D%2C%5B1%2C0.5%5D%5D%3BportConstraint%3Deastwest%3BwhiteSpace%3Dwrap%3Bhtml%3D1%3B%22%20vertex%3D%221%22%20parent%3D%223%22%3E%3CmxGeometry%20y%3D%2226%22%20width%3D%22300%22%20height%3D%2224%22%20as%3D%22geometry%22%2F%3E%3C%2FmxCell%3E%3CmxCell%20id%3D%225%22%20value%3D%22%2B%20GetAll()%20%3A%20ActionResult%26amp%3Blt%3BIEnumerable%26amp%3Blt%3BUserModel%26amp%3Bgt%3B%26amp%3Bgt%3B%3B%22%20style%3D%22text%3BstrokeColor%3Dnone%3BfillColor%3Dnone%3Balign%3Dleft%3BverticalAlign%3Dtop%3BspacingLeft%3D4%3BspacingRight%3D4%3Boverflow%3Dhidden%3Brotatable%3D0%3Bpoints%3D%5B%5B0%2C0.5%5D%2C%5B1%2C0.5%5D%5D%3BportConstraint%3Deastwest%3BwhiteSpace%3Dwrap%3Bhtml%3D1%3B%22%20vertex%3D%221%22%20parent%3D%223%22%3E%3CmxGeometry%20y%3D%2250%22%20width%3D%22300%22%20height%3D%2230%22%20as%3D%22geometry%22%2F%3E%3C%2FmxCell%3E%3CmxCell%20id%3D%226%22%20value%3D%22%2B%20Create(UserCreateModel)%20%3A%20ActionResult%3B%22%20style%3D%22text%3BstrokeColor%3Dnone%3BfillColor%3Dnone%3Balign%3Dleft%3BverticalAlign%3Dtop%3BspacingLeft%3D4%3BspacingRight%3D4%3Boverflow%3Dhidden%3Brotatable%3D0%3Bpoints%3D%5B%5B0%2C0.5%5D%2C%5B1%2C0.5%5D%5D%3BportConstraint%3Deastwest%3BwhiteSpace%3Dwrap%3Bhtml%3D1%3B%22%20vertex%3D%221%22%20parent%3D%223%22%3E%3CmxGeometry%20y%3D%2280%22%20width%3D%22300%22%20height%3D%2230%22%20as%3D%22geometry%22%2F%3E%3C%2FmxCell%3E%3CmxCell%20id%3D%227%22%20value%3D%22%2B%20Update(UserModel)%20%3A%20ActionResult%22%20style%3D%22text%3BstrokeColor%3Dnone%3BfillColor%3Dnone%3Balign%3Dleft%3BverticalAlign%3Dtop%3BspacingLeft%3D4%3BspacingRight%3D4%3Boverflow%3Dhidden%3Brotatable%3D0%3Bpoints%3D%5B%5B0%2C0.5%5D%2C%5B1%2C0.5%5D%5D%3BportConstraint%3Deastwest%3BwhiteSpace%3Dwrap%3Bhtml%3D1%3B%22%20vertex%3D%221%22%20parent%3D%223%22%3E%3CmxGeometry%20y%3D%22110%22%20width%3D%22300%22%20height%3D%2230%22%20as%3D%22geometry%22%2F%3E%3C%2FmxCell%3E%3CmxCell%20id%3D%228%22%20value%3D%22%2B%20Delete(UserDeleteModel)%20%3A%20ActionResult%22%20style%3D%22text%3BstrokeColor%3Dnone%3BfillColor%3Dnone%3Balign%3Dleft%3BverticalAlign%3Dtop%3BspacingLeft%3D4%3BspacingRight%3D4%3Boverflow%3Dhidden%3Brotatable%3D0%3Bpoints%3D%5B%5B0%2C0.5%5D%2C%5B1%2C0.5%5D%5D%3BportConstraint%3Deastwest%3BwhiteSpace%3Dwrap%3Bhtml%3D1%3B%22%20vertex%3D%221%22%20parent%3D%223%22%3E%3CmxGeometry%20y%3D%22140%22%20width%3D%22300%22%20height%3D%2230%22%20as%3D%22geometry%22%2F%3E%3C%2FmxCell%3E%3CmxCell%20id%3D%229%22%20value%3D%22Extends%22%20style%3D%22endArrow%3Dblock%3BendSize%3D16%3BendFill%3D0%3Bhtml%3D1%3Brounded%3D0%3BentryX%3D0%3BentryY%3D0.5%3BentryDx%3D0%3BentryDy%3D0%3BexitX%3D0.5%3BexitY%3D0%3BexitDx%3D0%3BexitDy%3D0%3B%22%20edge%3D%221%22%20source%3D%223%22%20target%3D%222%22%20parent%3D%221%22%3E%3CmxGeometry%20x%3D%22-0.4608%22%20width%3D%22160%22%20relative%3D%221%22%20as%3D%22geometry%22%3E%3CmxPoint%20x%3D%221787%22%20y%3D%222540%22%20as%3D%22sourcePoint%22%2F%3E%3CmxPoint%20x%3D%221947%22%20y%3D%222540%22%20as%3D%22targetPoint%22%2F%3E%3CArray%20as%3D%22points%22%3E%3CmxPoint%20x%3D%221772%22%20y%3D%222215%22%2F%3E%3C%2FArray%3E%3CmxPoint%20as%3D%22offset%22%2F%3E%3C%2FmxGeometry%3E%3C%2FmxCell%3E%3CmxCell%20id%3D%2210%22%20value%3D%22%C2%ABinterface%C2%BB%26lt%3Bbr%26gt%3B%26lt%3Bb%26gt%3BILogger%26amp%3Blt%3BUsersController%26amp%3Bgt%3B%26lt%3B%2Fb%26gt%3B%22%20style%3D%22html%3D1%3BwhiteSpace%3Dwrap%3B%22%20vertex%3D%221%22%20parent%3D%221%22%3E%3CmxGeometry%20x%3D%221372%22%20y%3D%222195%22%20width%3D%22205%22%20height%3D%2250%22%20as%3D%22geometry%22%2F%3E%3C%2FmxCell%3E%3CmxCell%20id%3D%2211%22%20value%3D%22%C2%ABinterface%C2%BB%26lt%3Bbr%26gt%3B%26lt%3Bb%26gt%3BIUsersService%26lt%3B%2Fb%26gt%3B%22%20style%3D%22html%3D1%3BwhiteSpace%3Dwrap%3B%22%20vertex%3D%221%22%20parent%3D%221%22%3E%3CmxGeometry%20x%3D%221372%22%20y%3D%222270%22%20width%3D%22205%22%20height%3D%2250%22%20as%3D%22geometry%22%2F%3E%3C%2FmxCell%3E%3CmxCell%20id%3D%2212%22%20value%3D%22Use%22%20style%3D%22endArrow%3Dopen%3BendSize%3D12%3Bdashed%3D1%3Bhtml%3D1%3Brounded%3D0%3BentryX%3D1%3BentryY%3D0.5%3BentryDx%3D0%3BentryDy%3D0%3BexitX%3D0.25%3BexitY%3D0%3BexitDx%3D0%3BexitDy%3D0%3B%22%20edge%3D%221%22%20source%3D%223%22%20target%3D%2210%22%20parent%3D%221%22%3E%3CmxGeometry%20x%3D%22-0.28%22%20width%3D%22160%22%20relative%3D%221%22%20as%3D%22geometry%22%3E%3CmxPoint%20x%3D%221787%22%20y%3D%222440%22%20as%3D%22sourcePoint%22%2F%3E%3CmxPoint%20x%3D%221947%22%20y%3D%222440%22%20as%3D%22targetPoint%22%2F%3E%3CArray%20as%3D%22points%22%3E%3CmxPoint%20x%3D%221697%22%20y%3D%222220%22%2F%3E%3C%2FArray%3E%3CmxPoint%20as%3D%22offset%22%2F%3E%3C%2FmxGeometry%3E%3C%2FmxCell%3E%3CmxCell%20id%3D%2213%22%20value%3D%22Use%22%20style%3D%22endArrow%3Dopen%3BendSize%3D12%3Bdashed%3D1%3Bhtml%3D1%3Brounded%3D0%3BentryX%3D0.5%3BentryY%3D1%3BentryDx%3D0%3BentryDy%3D0%3BexitX%3D0%3BexitY%3D0.118%3BexitDx%3D0%3BexitDy%3D0%3BexitPerimeter%3D0%3B%22%20edge%3D%221%22%20source%3D%223%22%20target%3D%2211%22%20parent%3D%221%22%3E%3CmxGeometry%20x%3D%220.5776%22%20width%3D%22160%22%20relative%3D%221%22%20as%3D%22geometry%22%3E%3CmxPoint%20x%3D%221787%22%20y%3D%222500%22%20as%3D%22sourcePoint%22%2F%3E%3CmxPoint%20x%3D%221947%22%20y%3D%222500%22%20as%3D%22targetPoint%22%2F%3E%3CArray%20as%3D%22points%22%3E%3CmxPoint%20x%3D%221477%22%20y%3D%222370%22%2F%3E%3C%2FArray%3E%3CmxPoint%20as%3D%22offset%22%2F%3E%3C%2FmxGeometry%3E%3C%2FmxCell%3E%3C%2Froot%3E%3C%2FmxGraphModel%3E&lt;/span&gt;" style="rounded=0;whiteSpace=wrap;html=1;dashed=1;" parent="1" vertex="1">
          <mxGeometry x="-790" y="-2180" width="1560" height="489.5" as="geometry" />
        </mxCell>
        <mxCell id="52U4ZKikLbj1_XuYDyp7-2" value="" style="rounded=0;whiteSpace=wrap;html=1;dashed=1;" parent="1" vertex="1">
          <mxGeometry x="-790" y="-1693.5" width="1560" height="803" as="geometry" />
        </mxCell>
        <mxCell id="52U4ZKikLbj1_XuYDyp7-3" value="" style="rounded=0;whiteSpace=wrap;html=1;dashed=1;" parent="1" vertex="1">
          <mxGeometry x="-790" y="-890.5" width="1560" height="320.5" as="geometry" />
        </mxCell>
        <mxCell id="52U4ZKikLbj1_XuYDyp7-4" value="FoodPlanner.BusinessLayer" style="text;html=1;strokeColor=default;fillColor=none;align=center;verticalAlign=middle;whiteSpace=wrap;rounded=0;dashed=1;" parent="1" vertex="1">
          <mxGeometry x="-790" y="-1692.5" width="170" height="30" as="geometry" />
        </mxCell>
        <mxCell id="52U4ZKikLbj1_XuYDyp7-5" value="FoodPlanner.DataAccessLayer" style="text;html=1;strokeColor=default;fillColor=none;align=center;verticalAlign=middle;whiteSpace=wrap;rounded=0;dashed=1;" parent="1" vertex="1">
          <mxGeometry x="-790" y="-890.5" width="179.5" height="30" as="geometry" />
        </mxCell>
        <mxCell id="52U4ZKikLbj1_XuYDyp7-6" value="FoodPlanner.WebAPI" style="text;html=1;strokeColor=default;fillColor=none;align=center;verticalAlign=middle;whiteSpace=wrap;rounded=0;dashed=1;" parent="1" vertex="1">
          <mxGeometry x="-790" y="-2180" width="170" height="30" as="geometry" />
        </mxCell>
        <mxCell id="52U4ZKikLbj1_XuYDyp7-7" value="ControllerBase" style="html=1;whiteSpace=wrap;" parent="1" vertex="1">
          <mxGeometry x="253.75" y="-2115.5" width="216.25" height="50" as="geometry" />
        </mxCell>
        <mxCell id="52U4ZKikLbj1_XuYDyp7-8" value="ReportController" style="swimlane;fontStyle=0;childLayout=stackLayout;horizontal=1;startSize=26;fillColor=none;horizontalStack=0;resizeParent=1;resizeParentMax=0;resizeLast=0;collapsible=1;marginBottom=0;whiteSpace=wrap;html=1;" parent="1" vertex="1">
          <mxGeometry x="-320" y="-1900.5" width="539.75" height="110" as="geometry" />
        </mxCell>
        <mxCell id="52U4ZKikLbj1_XuYDyp7-9" value="&lt;div style=&quot;text-align: center;&quot;&gt;+ ReportController()&lt;/div&gt;&lt;b style=&quot;border-color: var(--border-color); text-align: center;&quot;&gt;&lt;br&gt;&lt;/b&gt;" style="text;strokeColor=none;fillColor=none;align=left;verticalAlign=top;spacingLeft=4;spacingRight=4;overflow=hidden;rotatable=0;points=[[0,0.5],[1,0.5]];portConstraint=eastwest;whiteSpace=wrap;html=1;" parent="52U4ZKikLbj1_XuYDyp7-8" vertex="1">
          <mxGeometry y="26" width="539.75" height="24" as="geometry" />
        </mxCell>
        <mxCell id="52U4ZKikLbj1_XuYDyp7-10" value="+ GenerateExpireProductsReport (int daysBeforeExpired, bool includeActualPrices) : ActionResult" style="text;strokeColor=none;fillColor=none;align=left;verticalAlign=top;spacingLeft=4;spacingRight=4;overflow=hidden;rotatable=0;points=[[0,0.5],[1,0.5]];portConstraint=eastwest;whiteSpace=wrap;html=1;" parent="52U4ZKikLbj1_XuYDyp7-8" vertex="1">
          <mxGeometry y="50" width="539.75" height="30" as="geometry" />
        </mxCell>
        <mxCell id="52U4ZKikLbj1_XuYDyp7-11" value="+ GetReportAttachment (Guid attachmentId) : FileResult;" style="text;strokeColor=none;fillColor=none;align=left;verticalAlign=top;spacingLeft=4;spacingRight=4;overflow=hidden;rotatable=0;points=[[0,0.5],[1,0.5]];portConstraint=eastwest;whiteSpace=wrap;html=1;" parent="52U4ZKikLbj1_XuYDyp7-8" vertex="1">
          <mxGeometry y="80" width="539.75" height="30" as="geometry" />
        </mxCell>
        <mxCell id="52U4ZKikLbj1_XuYDyp7-12" value="Extends" style="endArrow=block;endSize=16;endFill=0;html=1;rounded=0;entryX=0;entryY=0.5;entryDx=0;entryDy=0;exitX=0.5;exitY=0;exitDx=0;exitDy=0;" parent="1" source="52U4ZKikLbj1_XuYDyp7-8" target="52U4ZKikLbj1_XuYDyp7-7" edge="1">
          <mxGeometry x="-0.4608" width="160" relative="1" as="geometry">
            <mxPoint x="-205" y="-1730.5" as="sourcePoint" />
            <mxPoint x="-45" y="-1730.5" as="targetPoint" />
            <Array as="points">
              <mxPoint x="-50" y="-2090.5" />
            </Array>
            <mxPoint as="offset" />
          </mxGeometry>
        </mxCell>
        <mxCell id="52U4ZKikLbj1_XuYDyp7-13" value="«interface»&lt;br&gt;&lt;b&gt;IHttpClientFactory&lt;/b&gt;" style="html=1;whiteSpace=wrap;" parent="1" vertex="1">
          <mxGeometry x="-760" y="-2110.5" width="205" height="45" as="geometry" />
        </mxCell>
        <mxCell id="52U4ZKikLbj1_XuYDyp7-14" value="Use" style="endArrow=open;endSize=12;dashed=1;html=1;rounded=0;entryX=1;entryY=0.5;entryDx=0;entryDy=0;exitX=0.317;exitY=0.018;exitDx=0;exitDy=0;exitPerimeter=0;" parent="1" source="52U4ZKikLbj1_XuYDyp7-8" target="52U4ZKikLbj1_XuYDyp7-13" edge="1">
          <mxGeometry x="-0.28" width="160" relative="1" as="geometry">
            <mxPoint x="-205" y="-1830.5" as="sourcePoint" />
            <mxPoint x="-45" y="-1830.5" as="targetPoint" />
            <Array as="points">
              <mxPoint x="-150" y="-2087.5" />
            </Array>
            <mxPoint as="offset" />
          </mxGeometry>
        </mxCell>
        <mxCell id="52U4ZKikLbj1_XuYDyp7-15" value="«interface»&lt;br&gt;&lt;b&gt;IReportService&lt;/b&gt;" style="html=1;whiteSpace=wrap;" parent="1" vertex="1">
          <mxGeometry x="-760" y="-2046.5" width="205" height="45" as="geometry" />
        </mxCell>
        <mxCell id="52U4ZKikLbj1_XuYDyp7-16" value="«interface»&lt;br&gt;&lt;b&gt;IReportStorageSerivce&lt;/b&gt;" style="html=1;whiteSpace=wrap;" parent="1" vertex="1">
          <mxGeometry x="-760" y="-1978.5" width="205" height="45" as="geometry" />
        </mxCell>
        <mxCell id="52U4ZKikLbj1_XuYDyp7-17" value="«interface»&lt;br&gt;&lt;b&gt;IRabbitMqProducer&lt;/b&gt;" style="html=1;whiteSpace=wrap;" parent="1" vertex="1">
          <mxGeometry x="-760" y="-1910.5" width="205" height="45" as="geometry" />
        </mxCell>
        <mxCell id="52U4ZKikLbj1_XuYDyp7-18" value="«interface»&lt;br&gt;&lt;b&gt;ILogger&amp;lt;ReportController&amp;gt;&amp;nbsp;&lt;/b&gt;" style="html=1;whiteSpace=wrap;" parent="1" vertex="1">
          <mxGeometry x="-760" y="-1847.5" width="205" height="45" as="geometry" />
        </mxCell>
        <mxCell id="52U4ZKikLbj1_XuYDyp7-19" value="ReportModel" style="swimlane;fontStyle=0;childLayout=stackLayout;horizontal=1;startSize=26;fillColor=none;horizontalStack=0;resizeParent=1;resizeParentMax=0;resizeLast=0;collapsible=1;marginBottom=0;whiteSpace=wrap;html=1;" parent="1" vertex="1">
          <mxGeometry x="280" y="-2003.5" width="190" height="212" as="geometry">
            <mxRectangle x="440" y="-830" width="110" height="30" as="alternateBounds" />
          </mxGeometry>
        </mxCell>
        <mxCell id="52U4ZKikLbj1_XuYDyp7-20" value="+ Id: GUID&lt;div&gt;&lt;br&gt;&lt;/div&gt;&lt;div&gt;&lt;br&gt;&lt;/div&gt;" style="text;strokeColor=none;fillColor=none;align=left;verticalAlign=top;spacingLeft=4;spacingRight=4;overflow=hidden;rotatable=0;points=[[0,0.5],[1,0.5]];portConstraint=eastwest;whiteSpace=wrap;html=1;" parent="52U4ZKikLbj1_XuYDyp7-19" vertex="1">
          <mxGeometry y="26" width="190" height="26" as="geometry" />
        </mxCell>
        <mxCell id="52U4ZKikLbj1_XuYDyp7-21" value="+ Name: string" style="text;strokeColor=none;fillColor=none;align=left;verticalAlign=top;spacingLeft=4;spacingRight=4;overflow=hidden;rotatable=0;points=[[0,0.5],[1,0.5]];portConstraint=eastwest;whiteSpace=wrap;html=1;" parent="52U4ZKikLbj1_XuYDyp7-19" vertex="1">
          <mxGeometry y="52" width="190" height="26" as="geometry" />
        </mxCell>
        <mxCell id="52U4ZKikLbj1_XuYDyp7-22" value="+ State:&amp;nbsp;ReportState" style="text;strokeColor=none;fillColor=none;align=left;verticalAlign=top;spacingLeft=4;spacingRight=4;overflow=hidden;rotatable=0;points=[[0,0.5],[1,0.5]];portConstraint=eastwest;whiteSpace=wrap;html=1;" parent="52U4ZKikLbj1_XuYDyp7-19" vertex="1">
          <mxGeometry y="78" width="190" height="26" as="geometry" />
        </mxCell>
        <mxCell id="52U4ZKikLbj1_XuYDyp7-23" value="+ Content:&amp;nbsp;MemoryStream" style="text;strokeColor=none;fillColor=none;align=left;verticalAlign=top;spacingLeft=4;spacingRight=4;overflow=hidden;rotatable=0;points=[[0,0.5],[1,0.5]];portConstraint=eastwest;whiteSpace=wrap;html=1;" parent="52U4ZKikLbj1_XuYDyp7-19" vertex="1">
          <mxGeometry y="104" width="190" height="30" as="geometry" />
        </mxCell>
        <mxCell id="52U4ZKikLbj1_XuYDyp7-24" value="+ Description: string" style="text;strokeColor=none;fillColor=none;align=left;verticalAlign=top;spacingLeft=4;spacingRight=4;overflow=hidden;rotatable=0;points=[[0,0.5],[1,0.5]];portConstraint=eastwest;whiteSpace=wrap;html=1;" parent="52U4ZKikLbj1_XuYDyp7-19" vertex="1">
          <mxGeometry y="134" width="190" height="26" as="geometry" />
        </mxCell>
        <mxCell id="52U4ZKikLbj1_XuYDyp7-25" value="+ CreatedBy: string" style="text;strokeColor=none;fillColor=none;align=left;verticalAlign=top;spacingLeft=4;spacingRight=4;overflow=hidden;rotatable=0;points=[[0,0.5],[1,0.5]];portConstraint=eastwest;whiteSpace=wrap;html=1;" parent="52U4ZKikLbj1_XuYDyp7-19" vertex="1">
          <mxGeometry y="160" width="190" height="26" as="geometry" />
        </mxCell>
        <mxCell id="52U4ZKikLbj1_XuYDyp7-26" value="+ CreatedAt: DateTime" style="text;strokeColor=none;fillColor=none;align=left;verticalAlign=top;spacingLeft=4;spacingRight=4;overflow=hidden;rotatable=0;points=[[0,0.5],[1,0.5]];portConstraint=eastwest;whiteSpace=wrap;html=1;" parent="52U4ZKikLbj1_XuYDyp7-19" vertex="1">
          <mxGeometry y="186" width="190" height="26" as="geometry" />
        </mxCell>
        <mxCell id="52U4ZKikLbj1_XuYDyp7-27" value="Use" style="endArrow=open;endSize=12;dashed=1;html=1;rounded=0;entryX=1;entryY=0.5;entryDx=0;entryDy=0;exitX=0.135;exitY=0;exitDx=0;exitDy=0;exitPerimeter=0;" parent="1" source="52U4ZKikLbj1_XuYDyp7-8" target="52U4ZKikLbj1_XuYDyp7-15" edge="1">
          <mxGeometry x="-0.2499" y="3" width="160" relative="1" as="geometry">
            <mxPoint x="-29" y="-1858.5" as="sourcePoint" />
            <mxPoint x="-420" y="-2041.5" as="targetPoint" />
            <Array as="points">
              <mxPoint x="-250" y="-2023.5" />
            </Array>
            <mxPoint as="offset" />
          </mxGeometry>
        </mxCell>
        <mxCell id="52U4ZKikLbj1_XuYDyp7-28" value="Use" style="endArrow=open;endSize=12;dashed=1;html=1;rounded=0;entryX=1;entryY=0.489;entryDx=0;entryDy=0;exitX=0.039;exitY=-0.018;exitDx=0;exitDy=0;exitPerimeter=0;entryPerimeter=0;" parent="1" source="52U4ZKikLbj1_XuYDyp7-8" target="52U4ZKikLbj1_XuYDyp7-16" edge="1">
          <mxGeometry x="-0.28" width="160" relative="1" as="geometry">
            <mxPoint x="-185.2510000000002" y="-1869.51" as="sourcePoint" />
            <mxPoint x="-429" y="-1931.25" as="targetPoint" />
            <Array as="points">
              <mxPoint x="-299" y="-1956.5" />
            </Array>
            <mxPoint as="offset" />
          </mxGeometry>
        </mxCell>
        <mxCell id="52U4ZKikLbj1_XuYDyp7-29" value="Use" style="endArrow=open;endSize=12;dashed=1;html=1;rounded=0;entryX=1;entryY=0.5;entryDx=0;entryDy=0;exitX=-0.006;exitY=0.127;exitDx=0;exitDy=0;exitPerimeter=0;" parent="1" source="52U4ZKikLbj1_XuYDyp7-8" target="52U4ZKikLbj1_XuYDyp7-17" edge="1">
          <mxGeometry x="-0.28" width="160" relative="1" as="geometry">
            <mxPoint x="-179" y="-1862.5" as="sourcePoint" />
            <mxPoint x="-420" y="-1910.5" as="targetPoint" />
            <Array as="points" />
            <mxPoint as="offset" />
          </mxGeometry>
        </mxCell>
        <mxCell id="52U4ZKikLbj1_XuYDyp7-30" value="Use" style="endArrow=open;endSize=12;dashed=1;html=1;rounded=0;entryX=1;entryY=0.5;entryDx=0;entryDy=0;exitX=-0.002;exitY=0.833;exitDx=0;exitDy=0;exitPerimeter=0;" parent="1" source="52U4ZKikLbj1_XuYDyp7-10" target="52U4ZKikLbj1_XuYDyp7-18" edge="1">
          <mxGeometry x="-0.28" width="160" relative="1" as="geometry">
            <mxPoint x="-210" y="-1793.5" as="sourcePoint" />
            <mxPoint x="-420" y="-1845.5" as="targetPoint" />
            <Array as="points" />
            <mxPoint as="offset" />
          </mxGeometry>
        </mxCell>
        <mxCell id="52U4ZKikLbj1_XuYDyp7-31" value="Use" style="endArrow=open;endSize=12;dashed=1;html=1;rounded=0;exitX=1;exitY=0.5;exitDx=0;exitDy=0;entryX=0.011;entryY=0.231;entryDx=0;entryDy=0;entryPerimeter=0;" parent="1" source="52U4ZKikLbj1_XuYDyp7-9" target="52U4ZKikLbj1_XuYDyp7-24" edge="1">
          <mxGeometry x="-0.28" width="160" relative="1" as="geometry">
            <mxPoint x="-200" y="-1783.5" as="sourcePoint" />
            <mxPoint x="-420" y="-1783.5" as="targetPoint" />
            <Array as="points" />
            <mxPoint as="offset" />
          </mxGeometry>
        </mxCell>
        <mxCell id="52U4ZKikLbj1_XuYDyp7-32" value="PdfService" style="swimlane;fontStyle=0;childLayout=stackLayout;horizontal=1;startSize=26;fillColor=none;horizontalStack=0;resizeParent=1;resizeParentMax=0;resizeLast=0;collapsible=1;marginBottom=0;whiteSpace=wrap;html=1;" parent="1" vertex="1">
          <mxGeometry x="-440" y="-1550.5" width="305" height="52" as="geometry" />
        </mxCell>
        <mxCell id="52U4ZKikLbj1_XuYDyp7-33" value="CreatePDFAsync (string htmlContent):&amp;nbsp;Task&amp;lt;byte[]&amp;gt;" style="text;strokeColor=none;fillColor=none;align=left;verticalAlign=top;spacingLeft=4;spacingRight=4;overflow=hidden;rotatable=0;points=[[0,0.5],[1,0.5]];portConstraint=eastwest;whiteSpace=wrap;html=1;" parent="52U4ZKikLbj1_XuYDyp7-32" vertex="1">
          <mxGeometry y="26" width="305" height="26" as="geometry" />
        </mxCell>
        <mxCell id="52U4ZKikLbj1_XuYDyp7-34" value="«interface»&lt;br&gt;&lt;b&gt;IPdfService&lt;/b&gt;" style="html=1;whiteSpace=wrap;" parent="1" vertex="1">
          <mxGeometry x="-440" y="-1640.5" width="305" height="50" as="geometry" />
        </mxCell>
        <mxCell id="52U4ZKikLbj1_XuYDyp7-35" value="" style="endArrow=block;dashed=1;endFill=0;endSize=12;html=1;rounded=0;entryX=0.5;entryY=1;entryDx=0;entryDy=0;exitX=0.5;exitY=0;exitDx=0;exitDy=0;" parent="1" source="52U4ZKikLbj1_XuYDyp7-32" target="52U4ZKikLbj1_XuYDyp7-34" edge="1">
          <mxGeometry width="160" relative="1" as="geometry">
            <mxPoint x="-286" y="-1540.5" as="sourcePoint" />
            <mxPoint x="76" y="-1533.5" as="targetPoint" />
          </mxGeometry>
        </mxCell>
        <mxCell id="52U4ZKikLbj1_XuYDyp7-36" value="«interface»&lt;br&gt;&lt;b&gt;IConverter&lt;/b&gt;" style="html=1;whiteSpace=wrap;" parent="1" vertex="1">
          <mxGeometry x="-747.5" y="-1610.5" width="205" height="45" as="geometry" />
        </mxCell>
        <mxCell id="52U4ZKikLbj1_XuYDyp7-37" value="«interface»&lt;br&gt;&lt;b&gt;ILogger&amp;lt;PdfService&amp;gt;&amp;nbsp;&lt;/b&gt;" style="html=1;whiteSpace=wrap;" parent="1" vertex="1">
          <mxGeometry x="-747.5" y="-1514" width="205" height="45" as="geometry" />
        </mxCell>
        <mxCell id="52U4ZKikLbj1_XuYDyp7-38" value="Use" style="endArrow=open;endSize=12;dashed=1;html=1;rounded=0;entryX=1;entryY=0.5;entryDx=0;entryDy=0;exitX=0;exitY=0.25;exitDx=0;exitDy=0;" parent="1" source="52U4ZKikLbj1_XuYDyp7-32" target="52U4ZKikLbj1_XuYDyp7-36" edge="1">
          <mxGeometry x="-0.28" width="160" relative="1" as="geometry">
            <mxPoint x="-278" y="-1591.5" as="sourcePoint" />
            <mxPoint x="-485" y="-1645.5" as="targetPoint" />
            <Array as="points" />
            <mxPoint as="offset" />
          </mxGeometry>
        </mxCell>
        <mxCell id="52U4ZKikLbj1_XuYDyp7-39" value="ReportService" style="swimlane;fontStyle=0;childLayout=stackLayout;horizontal=1;startSize=26;fillColor=none;horizontalStack=0;resizeParent=1;resizeParentMax=0;resizeLast=0;collapsible=1;marginBottom=0;whiteSpace=wrap;html=1;" parent="1" vertex="1">
          <mxGeometry x="-440" y="-1330.5" width="520" height="156" as="geometry" />
        </mxCell>
        <mxCell id="52U4ZKikLbj1_XuYDyp7-40" value="+ReportService (IReportFileBuilder, IPdfService, ILogger&amp;lt;ReportService&amp;gt;)" style="text;strokeColor=none;fillColor=none;align=left;verticalAlign=top;spacingLeft=4;spacingRight=4;overflow=hidden;rotatable=0;points=[[0,0.5],[1,0.5]];portConstraint=eastwest;whiteSpace=wrap;html=1;" parent="52U4ZKikLbj1_XuYDyp7-39" vertex="1">
          <mxGeometry y="26" width="520" height="26" as="geometry" />
        </mxCell>
        <mxCell id="52U4ZKikLbj1_XuYDyp7-41" value="+Create (string reportName, string reportDescription, Guid userId): Report" style="text;strokeColor=none;fillColor=none;align=left;verticalAlign=top;spacingLeft=4;spacingRight=4;overflow=hidden;rotatable=0;points=[[0,0.5],[1,0.5]];portConstraint=eastwest;whiteSpace=wrap;html=1;" parent="52U4ZKikLbj1_XuYDyp7-39" vertex="1">
          <mxGeometry y="52" width="520" height="26" as="geometry" />
        </mxCell>
        <mxCell id="52U4ZKikLbj1_XuYDyp7-42" value="+GenerateReportFileAsync (int daysBeforeExpired, bool includeActualPrices):&amp;nbsp;Task&amp;lt;byte[]&amp;gt;" style="text;strokeColor=none;fillColor=none;align=left;verticalAlign=top;spacingLeft=4;spacingRight=4;overflow=hidden;rotatable=0;points=[[0,0.5],[1,0.5]];portConstraint=eastwest;whiteSpace=wrap;html=1;" parent="52U4ZKikLbj1_XuYDyp7-39" vertex="1">
          <mxGeometry y="78" width="520" height="26" as="geometry" />
        </mxCell>
        <mxCell id="52U4ZKikLbj1_XuYDyp7-43" value="+GenerateReportFileDistributionAsync (ExpireProduct products):&amp;nbsp;Task&amp;lt;byte[]&amp;gt;" style="text;strokeColor=none;fillColor=none;align=left;verticalAlign=top;spacingLeft=4;spacingRight=4;overflow=hidden;rotatable=0;points=[[0,0.5],[1,0.5]];portConstraint=eastwest;whiteSpace=wrap;html=1;" parent="52U4ZKikLbj1_XuYDyp7-39" vertex="1">
          <mxGeometry y="104" width="520" height="26" as="geometry" />
        </mxCell>
        <mxCell id="52U4ZKikLbj1_XuYDyp7-44" value="+GenerateReportFileDistributionAsync (ProductAlmostOver product):&amp;nbsp;Task&amp;lt;byte[]&amp;gt;" style="text;strokeColor=none;fillColor=none;align=left;verticalAlign=top;spacingLeft=4;spacingRight=4;overflow=hidden;rotatable=0;points=[[0,0.5],[1,0.5]];portConstraint=eastwest;whiteSpace=wrap;html=1;" parent="52U4ZKikLbj1_XuYDyp7-39" vertex="1">
          <mxGeometry y="130" width="520" height="26" as="geometry" />
        </mxCell>
        <mxCell id="52U4ZKikLbj1_XuYDyp7-45" value="«interface»&lt;br&gt;&lt;b&gt;IReportService&lt;/b&gt;" style="html=1;whiteSpace=wrap;" parent="1" vertex="1">
          <mxGeometry x="-439" y="-1410.5" width="519" height="40" as="geometry" />
        </mxCell>
        <mxCell id="52U4ZKikLbj1_XuYDyp7-46" value="" style="endArrow=block;dashed=1;endFill=0;endSize=12;html=1;rounded=0;exitX=0.5;exitY=0;exitDx=0;exitDy=0;entryX=0.5;entryY=1;entryDx=0;entryDy=0;" parent="1" source="52U4ZKikLbj1_XuYDyp7-39" target="52U4ZKikLbj1_XuYDyp7-45" edge="1">
          <mxGeometry width="160" relative="1" as="geometry">
            <mxPoint x="-286.5" y="-1293.5" as="sourcePoint" />
            <mxPoint x="76" y="-1323.5" as="targetPoint" />
            <Array as="points" />
          </mxGeometry>
        </mxCell>
        <mxCell id="52U4ZKikLbj1_XuYDyp7-47" value="«interface»&lt;br&gt;&lt;b&gt;IPdfService&lt;/b&gt;" style="html=1;whiteSpace=wrap;" parent="1" vertex="1">
          <mxGeometry x="-747.5" y="-1410.5" width="205" height="45" as="geometry" />
        </mxCell>
        <mxCell id="52U4ZKikLbj1_XuYDyp7-48" value="«interface»&lt;br&gt;&lt;b&gt;ILogger&amp;lt;ReportService&amp;gt;&amp;nbsp;&lt;/b&gt;" style="html=1;whiteSpace=wrap;" parent="1" vertex="1">
          <mxGeometry x="-747.5" y="-1250.5" width="205" height="45" as="geometry" />
        </mxCell>
        <mxCell id="52U4ZKikLbj1_XuYDyp7-49" value="«interface»&lt;br&gt;&lt;b&gt;IReportFileBuilder&lt;/b&gt;" style="html=1;whiteSpace=wrap;" parent="1" vertex="1">
          <mxGeometry x="-747.5" y="-1330.5" width="205" height="45" as="geometry" />
        </mxCell>
        <mxCell id="52U4ZKikLbj1_XuYDyp7-50" value="Use" style="endArrow=open;endSize=12;dashed=1;html=1;rounded=0;entryX=1;entryY=0.5;entryDx=0;entryDy=0;exitX=-0.004;exitY=0.058;exitDx=0;exitDy=0;exitPerimeter=0;" parent="1" source="52U4ZKikLbj1_XuYDyp7-39" target="52U4ZKikLbj1_XuYDyp7-47" edge="1">
          <mxGeometry x="-0.28" width="160" relative="1" as="geometry">
            <mxPoint x="-430" y="-1480.5" as="sourcePoint" />
            <mxPoint x="-485" y="-1580.5" as="targetPoint" />
            <Array as="points" />
            <mxPoint as="offset" />
          </mxGeometry>
        </mxCell>
        <mxCell id="52U4ZKikLbj1_XuYDyp7-51" value="Use" style="endArrow=open;endSize=12;dashed=1;html=1;rounded=0;entryX=1;entryY=0.5;entryDx=0;entryDy=0;exitX=0;exitY=0.5;exitDx=0;exitDy=0;" parent="1" source="52U4ZKikLbj1_XuYDyp7-41" target="52U4ZKikLbj1_XuYDyp7-49" edge="1">
          <mxGeometry x="-0.28" width="160" relative="1" as="geometry">
            <mxPoint x="-440" y="-1206.5" as="sourcePoint" />
            <mxPoint x="-495" y="-1306.5" as="targetPoint" />
            <Array as="points" />
            <mxPoint as="offset" />
          </mxGeometry>
        </mxCell>
        <mxCell id="52U4ZKikLbj1_XuYDyp7-52" value="Use" style="endArrow=open;endSize=12;dashed=1;html=1;rounded=0;entryX=1;entryY=0.5;entryDx=0;entryDy=0;exitX=0;exitY=0.5;exitDx=0;exitDy=0;" parent="1" source="52U4ZKikLbj1_XuYDyp7-42" target="52U4ZKikLbj1_XuYDyp7-48" edge="1">
          <mxGeometry x="-0.28" width="160" relative="1" as="geometry">
            <mxPoint x="-410" y="-1460.5" as="sourcePoint" />
            <mxPoint x="-465" y="-1560.5" as="targetPoint" />
            <Array as="points" />
            <mxPoint as="offset" />
          </mxGeometry>
        </mxCell>
        <mxCell id="52U4ZKikLbj1_XuYDyp7-53" value="&lt;div&gt;&amp;lt;Enum&amp;gt;&lt;/div&gt;&lt;div&gt;ReportState&lt;br&gt;&lt;/div&gt;" style="swimlane;fontStyle=0;childLayout=stackLayout;horizontal=1;startSize=26;fillColor=none;horizontalStack=0;resizeParent=1;resizeParentMax=0;resizeLast=0;collapsible=1;marginBottom=0;whiteSpace=wrap;html=1;" parent="1" vertex="1">
          <mxGeometry x="500" y="-2003.5" width="190" height="104" as="geometry" />
        </mxCell>
        <mxCell id="52U4ZKikLbj1_XuYDyp7-54" value="&lt;div&gt;Created&lt;/div&gt;&lt;div&gt;&lt;br&gt;&lt;/div&gt;" style="text;strokeColor=none;fillColor=none;align=left;verticalAlign=top;spacingLeft=4;spacingRight=4;overflow=hidden;rotatable=0;points=[[0,0.5],[1,0.5]];portConstraint=eastwest;whiteSpace=wrap;html=1;" parent="52U4ZKikLbj1_XuYDyp7-53" vertex="1">
          <mxGeometry y="26" width="190" height="26" as="geometry" />
        </mxCell>
        <mxCell id="52U4ZKikLbj1_XuYDyp7-55" value="Generated" style="text;strokeColor=none;fillColor=none;align=left;verticalAlign=top;spacingLeft=4;spacingRight=4;overflow=hidden;rotatable=0;points=[[0,0.5],[1,0.5]];portConstraint=eastwest;whiteSpace=wrap;html=1;" parent="52U4ZKikLbj1_XuYDyp7-53" vertex="1">
          <mxGeometry y="52" width="190" height="26" as="geometry" />
        </mxCell>
        <mxCell id="52U4ZKikLbj1_XuYDyp7-56" value="Sent" style="text;strokeColor=none;fillColor=none;align=left;verticalAlign=top;spacingLeft=4;spacingRight=4;overflow=hidden;rotatable=0;points=[[0,0.5],[1,0.5]];portConstraint=eastwest;whiteSpace=wrap;html=1;" parent="52U4ZKikLbj1_XuYDyp7-53" vertex="1">
          <mxGeometry y="78" width="190" height="26" as="geometry" />
        </mxCell>
        <mxCell id="52U4ZKikLbj1_XuYDyp7-57" value="" style="endArrow=open;endFill=1;endSize=12;html=1;rounded=0;exitX=1;exitY=0.5;exitDx=0;exitDy=0;entryX=0.421;entryY=1.115;entryDx=0;entryDy=0;entryPerimeter=0;" parent="1" source="52U4ZKikLbj1_XuYDyp7-25" target="52U4ZKikLbj1_XuYDyp7-56" edge="1">
          <mxGeometry width="160" relative="1" as="geometry">
            <mxPoint x="490" y="-1830.5" as="sourcePoint" />
            <mxPoint x="650" y="-1830.5" as="targetPoint" />
            <Array as="points">
              <mxPoint x="580" y="-1830.5" />
            </Array>
          </mxGeometry>
        </mxCell>
        <mxCell id="52U4ZKikLbj1_XuYDyp7-58" value="Use" style="endArrow=open;endSize=12;dashed=1;html=1;rounded=0;entryX=1;entryY=0.5;entryDx=0;entryDy=0;exitX=0;exitY=0.5;exitDx=0;exitDy=0;" parent="1" source="52U4ZKikLbj1_XuYDyp7-33" target="52U4ZKikLbj1_XuYDyp7-37" edge="1">
          <mxGeometry x="-0.28" width="160" relative="1" as="geometry">
            <mxPoint x="-430" y="-1527.5" as="sourcePoint" />
            <mxPoint x="-532" y="-1577.5" as="targetPoint" />
            <Array as="points" />
            <mxPoint as="offset" />
          </mxGeometry>
        </mxCell>
        <mxCell id="52U4ZKikLbj1_XuYDyp7-59" value="Report" style="swimlane;fontStyle=0;childLayout=stackLayout;horizontal=1;startSize=26;fillColor=none;horizontalStack=0;resizeParent=1;resizeParentMax=0;resizeLast=0;collapsible=1;marginBottom=0;whiteSpace=wrap;html=1;" parent="1" vertex="1">
          <mxGeometry x="-752.5" y="-1120.5" width="197.5" height="208" as="geometry" />
        </mxCell>
        <mxCell id="52U4ZKikLbj1_XuYDyp7-60" value="+ Id: Guid" style="text;strokeColor=none;fillColor=none;align=left;verticalAlign=top;spacingLeft=4;spacingRight=4;overflow=hidden;rotatable=0;points=[[0,0.5],[1,0.5]];portConstraint=eastwest;whiteSpace=wrap;html=1;" parent="52U4ZKikLbj1_XuYDyp7-59" vertex="1">
          <mxGeometry y="26" width="197.5" height="26" as="geometry" />
        </mxCell>
        <mxCell id="52U4ZKikLbj1_XuYDyp7-61" value="+ Name: string" style="text;strokeColor=none;fillColor=none;align=left;verticalAlign=top;spacingLeft=4;spacingRight=4;overflow=hidden;rotatable=0;points=[[0,0.5],[1,0.5]];portConstraint=eastwest;whiteSpace=wrap;html=1;" parent="52U4ZKikLbj1_XuYDyp7-59" vertex="1">
          <mxGeometry y="52" width="197.5" height="26" as="geometry" />
        </mxCell>
        <mxCell id="52U4ZKikLbj1_XuYDyp7-62" value="+ State: ReportState" style="text;strokeColor=none;fillColor=none;align=left;verticalAlign=top;spacingLeft=4;spacingRight=4;overflow=hidden;rotatable=0;points=[[0,0.5],[1,0.5]];portConstraint=eastwest;whiteSpace=wrap;html=1;" parent="52U4ZKikLbj1_XuYDyp7-59" vertex="1">
          <mxGeometry y="78" width="197.5" height="26" as="geometry" />
        </mxCell>
        <mxCell id="52U4ZKikLbj1_XuYDyp7-63" value="+ Content: byte[]" style="text;strokeColor=none;fillColor=none;align=left;verticalAlign=top;spacingLeft=4;spacingRight=4;overflow=hidden;rotatable=0;points=[[0,0.5],[1,0.5]];portConstraint=eastwest;whiteSpace=wrap;html=1;" parent="52U4ZKikLbj1_XuYDyp7-59" vertex="1">
          <mxGeometry y="104" width="197.5" height="26" as="geometry" />
        </mxCell>
        <mxCell id="52U4ZKikLbj1_XuYDyp7-64" value="+ Description: string" style="text;strokeColor=none;fillColor=none;align=left;verticalAlign=top;spacingLeft=4;spacingRight=4;overflow=hidden;rotatable=0;points=[[0,0.5],[1,0.5]];portConstraint=eastwest;whiteSpace=wrap;html=1;" parent="52U4ZKikLbj1_XuYDyp7-59" vertex="1">
          <mxGeometry y="130" width="197.5" height="26" as="geometry" />
        </mxCell>
        <mxCell id="52U4ZKikLbj1_XuYDyp7-65" value="+ CreatedBy: UserId" style="text;strokeColor=none;fillColor=none;align=left;verticalAlign=top;spacingLeft=4;spacingRight=4;overflow=hidden;rotatable=0;points=[[0,0.5],[1,0.5]];portConstraint=eastwest;whiteSpace=wrap;html=1;" parent="52U4ZKikLbj1_XuYDyp7-59" vertex="1">
          <mxGeometry y="156" width="197.5" height="26" as="geometry" />
        </mxCell>
        <mxCell id="52U4ZKikLbj1_XuYDyp7-66" value="+ CreatedAt: DateTime" style="text;strokeColor=none;fillColor=none;align=left;verticalAlign=top;spacingLeft=4;spacingRight=4;overflow=hidden;rotatable=0;points=[[0,0.5],[1,0.5]];portConstraint=eastwest;whiteSpace=wrap;html=1;" parent="52U4ZKikLbj1_XuYDyp7-59" vertex="1">
          <mxGeometry y="182" width="197.5" height="26" as="geometry" />
        </mxCell>
        <mxCell id="52U4ZKikLbj1_XuYDyp7-67" value="Use" style="endArrow=open;endSize=12;dashed=1;html=1;rounded=0;entryX=1;entryY=0.5;entryDx=0;entryDy=0;exitX=0.102;exitY=1.077;exitDx=0;exitDy=0;exitPerimeter=0;" parent="1" source="52U4ZKikLbj1_XuYDyp7-44" target="52U4ZKikLbj1_XuYDyp7-61" edge="1">
          <mxGeometry x="-0.28" width="160" relative="1" as="geometry">
            <mxPoint x="-430" y="-1229.5" as="sourcePoint" />
            <mxPoint x="-532" y="-1217.5" as="targetPoint" />
            <Array as="points" />
            <mxPoint as="offset" />
          </mxGeometry>
        </mxCell>
        <mxCell id="52U4ZKikLbj1_XuYDyp7-68" value="ExpireProduct" style="swimlane;fontStyle=0;childLayout=stackLayout;horizontal=1;startSize=26;fillColor=none;horizontalStack=0;resizeParent=1;resizeParentMax=0;resizeLast=0;collapsible=1;marginBottom=0;whiteSpace=wrap;html=1;" parent="1" vertex="1">
          <mxGeometry x="-356" y="-1111.5" width="170" height="208" as="geometry" />
        </mxCell>
        <mxCell id="52U4ZKikLbj1_XuYDyp7-69" value="+ Id: &amp;nbsp;Guid" style="text;strokeColor=none;fillColor=none;align=left;verticalAlign=top;spacingLeft=4;spacingRight=4;overflow=hidden;rotatable=0;points=[[0,0.5],[1,0.5]];portConstraint=eastwest;whiteSpace=wrap;html=1;" parent="52U4ZKikLbj1_XuYDyp7-68" vertex="1">
          <mxGeometry y="26" width="170" height="26" as="geometry" />
        </mxCell>
        <mxCell id="52U4ZKikLbj1_XuYDyp7-70" value="+ ProductName: string" style="text;strokeColor=none;fillColor=none;align=left;verticalAlign=top;spacingLeft=4;spacingRight=4;overflow=hidden;rotatable=0;points=[[0,0.5],[1,0.5]];portConstraint=eastwest;whiteSpace=wrap;html=1;" parent="52U4ZKikLbj1_XuYDyp7-68" vertex="1">
          <mxGeometry y="52" width="170" height="26" as="geometry" />
        </mxCell>
        <mxCell id="52U4ZKikLbj1_XuYDyp7-71" value="+ Amount: int" style="text;strokeColor=none;fillColor=none;align=left;verticalAlign=top;spacingLeft=4;spacingRight=4;overflow=hidden;rotatable=0;points=[[0,0.5],[1,0.5]];portConstraint=eastwest;whiteSpace=wrap;html=1;" parent="52U4ZKikLbj1_XuYDyp7-68" vertex="1">
          <mxGeometry y="78" width="170" height="26" as="geometry" />
        </mxCell>
        <mxCell id="52U4ZKikLbj1_XuYDyp7-72" value="+ Unit: string" style="text;strokeColor=none;fillColor=none;align=left;verticalAlign=top;spacingLeft=4;spacingRight=4;overflow=hidden;rotatable=0;points=[[0,0.5],[1,0.5]];portConstraint=eastwest;whiteSpace=wrap;html=1;" parent="52U4ZKikLbj1_XuYDyp7-68" vertex="1">
          <mxGeometry y="104" width="170" height="26" as="geometry" />
        </mxCell>
        <mxCell id="52U4ZKikLbj1_XuYDyp7-73" value="+ CreatingDate: DateTime" style="text;strokeColor=none;fillColor=none;align=left;verticalAlign=top;spacingLeft=4;spacingRight=4;overflow=hidden;rotatable=0;points=[[0,0.5],[1,0.5]];portConstraint=eastwest;whiteSpace=wrap;html=1;" parent="52U4ZKikLbj1_XuYDyp7-68" vertex="1">
          <mxGeometry y="130" width="170" height="26" as="geometry" />
        </mxCell>
        <mxCell id="52U4ZKikLbj1_XuYDyp7-74" value="+ ExpiryDate: DateTime?" style="text;strokeColor=none;fillColor=none;align=left;verticalAlign=top;spacingLeft=4;spacingRight=4;overflow=hidden;rotatable=0;points=[[0,0.5],[1,0.5]];portConstraint=eastwest;whiteSpace=wrap;html=1;" parent="52U4ZKikLbj1_XuYDyp7-68" vertex="1">
          <mxGeometry y="156" width="170" height="26" as="geometry" />
        </mxCell>
        <mxCell id="52U4ZKikLbj1_XuYDyp7-75" value="+ OccuredOn: DateTime" style="text;strokeColor=none;fillColor=none;align=left;verticalAlign=top;spacingLeft=4;spacingRight=4;overflow=hidden;rotatable=0;points=[[0,0.5],[1,0.5]];portConstraint=eastwest;whiteSpace=wrap;html=1;" parent="52U4ZKikLbj1_XuYDyp7-68" vertex="1">
          <mxGeometry y="182" width="170" height="26" as="geometry" />
        </mxCell>
        <mxCell id="52U4ZKikLbj1_XuYDyp7-76" value="Use" style="endArrow=open;endSize=12;dashed=1;html=1;rounded=0;entryX=0.5;entryY=0;entryDx=0;entryDy=0;exitX=0.325;exitY=1;exitDx=0;exitDy=0;exitPerimeter=0;" parent="1" source="52U4ZKikLbj1_XuYDyp7-44" target="52U4ZKikLbj1_XuYDyp7-68" edge="1">
          <mxGeometry x="-0.2698" width="160" relative="1" as="geometry">
            <mxPoint x="-377" y="-1162.5" as="sourcePoint" />
            <mxPoint x="-545" y="-1045.5" as="targetPoint" />
            <Array as="points" />
            <mxPoint as="offset" />
          </mxGeometry>
        </mxCell>
        <mxCell id="52U4ZKikLbj1_XuYDyp7-77" value="ProductAlmostOver" style="swimlane;fontStyle=0;childLayout=stackLayout;horizontal=1;startSize=26;fillColor=none;horizontalStack=0;resizeParent=1;resizeParentMax=0;resizeLast=0;collapsible=1;marginBottom=0;whiteSpace=wrap;html=1;" parent="1" vertex="1">
          <mxGeometry x="-90" y="-1110.5" width="170" height="156" as="geometry" />
        </mxCell>
        <mxCell id="52U4ZKikLbj1_XuYDyp7-78" value="+ ProductName: string" style="text;strokeColor=none;fillColor=none;align=left;verticalAlign=top;spacingLeft=4;spacingRight=4;overflow=hidden;rotatable=0;points=[[0,0.5],[1,0.5]];portConstraint=eastwest;whiteSpace=wrap;html=1;" parent="52U4ZKikLbj1_XuYDyp7-77" vertex="1">
          <mxGeometry y="26" width="170" height="26" as="geometry" />
        </mxCell>
        <mxCell id="52U4ZKikLbj1_XuYDyp7-79" value="+ Amount: int" style="text;strokeColor=none;fillColor=none;align=left;verticalAlign=top;spacingLeft=4;spacingRight=4;overflow=hidden;rotatable=0;points=[[0,0.5],[1,0.5]];portConstraint=eastwest;whiteSpace=wrap;html=1;" parent="52U4ZKikLbj1_XuYDyp7-77" vertex="1">
          <mxGeometry y="52" width="170" height="26" as="geometry" />
        </mxCell>
        <mxCell id="52U4ZKikLbj1_XuYDyp7-80" value="+ MinAmountPerDay: int" style="text;strokeColor=none;fillColor=none;align=left;verticalAlign=top;spacingLeft=4;spacingRight=4;overflow=hidden;rotatable=0;points=[[0,0.5],[1,0.5]];portConstraint=eastwest;whiteSpace=wrap;html=1;" parent="52U4ZKikLbj1_XuYDyp7-77" vertex="1">
          <mxGeometry y="78" width="170" height="26" as="geometry" />
        </mxCell>
        <mxCell id="52U4ZKikLbj1_XuYDyp7-81" value="+ Unit: string" style="text;strokeColor=none;fillColor=none;align=left;verticalAlign=top;spacingLeft=4;spacingRight=4;overflow=hidden;rotatable=0;points=[[0,0.5],[1,0.5]];portConstraint=eastwest;whiteSpace=wrap;html=1;" parent="52U4ZKikLbj1_XuYDyp7-77" vertex="1">
          <mxGeometry y="104" width="170" height="26" as="geometry" />
        </mxCell>
        <mxCell id="52U4ZKikLbj1_XuYDyp7-82" value="+ OccuredOn: DateTime" style="text;strokeColor=none;fillColor=none;align=left;verticalAlign=top;spacingLeft=4;spacingRight=4;overflow=hidden;rotatable=0;points=[[0,0.5],[1,0.5]];portConstraint=eastwest;whiteSpace=wrap;html=1;" parent="52U4ZKikLbj1_XuYDyp7-77" vertex="1">
          <mxGeometry y="130" width="170" height="26" as="geometry" />
        </mxCell>
        <mxCell id="52U4ZKikLbj1_XuYDyp7-83" value="Use" style="endArrow=open;endSize=12;dashed=1;html=1;rounded=0;entryX=0.459;entryY=0.006;entryDx=0;entryDy=0;exitX=0.817;exitY=1.192;exitDx=0;exitDy=0;exitPerimeter=0;entryPerimeter=0;" parent="1" source="52U4ZKikLbj1_XuYDyp7-44" target="52U4ZKikLbj1_XuYDyp7-77" edge="1">
          <mxGeometry x="-0.2698" width="160" relative="1" as="geometry">
            <mxPoint x="-261" y="-1164.5" as="sourcePoint" />
            <mxPoint x="-261" y="-1101.5" as="targetPoint" />
            <Array as="points" />
            <mxPoint as="offset" />
          </mxGeometry>
        </mxCell>
        <mxCell id="52U4ZKikLbj1_XuYDyp7-84" value="ReportAttachmentSerivce" style="swimlane;fontStyle=0;childLayout=stackLayout;horizontal=1;startSize=26;fillColor=none;horizontalStack=0;resizeParent=1;resizeParentMax=0;resizeLast=0;collapsible=1;marginBottom=0;whiteSpace=wrap;html=1;" parent="1" vertex="1">
          <mxGeometry x="130" y="-1150.5" width="305" height="52" as="geometry" />
        </mxCell>
        <mxCell id="52U4ZKikLbj1_XuYDyp7-85" value="«interface»&lt;br&gt;&lt;b&gt;IReportAttachmentSerivce&lt;/b&gt;" style="html=1;whiteSpace=wrap;" parent="1" vertex="1">
          <mxGeometry x="130" y="-1260.5" width="305" height="50" as="geometry" />
        </mxCell>
        <mxCell id="52U4ZKikLbj1_XuYDyp7-86" value="" style="endArrow=block;dashed=1;endFill=0;endSize=12;html=1;rounded=0;entryX=0.5;entryY=1;entryDx=0;entryDy=0;exitX=0.5;exitY=0;exitDx=0;exitDy=0;" parent="1" source="52U4ZKikLbj1_XuYDyp7-84" target="52U4ZKikLbj1_XuYDyp7-85" edge="1">
          <mxGeometry width="160" relative="1" as="geometry">
            <mxPoint x="284" y="-1540.5" as="sourcePoint" />
            <mxPoint x="646" y="-1533.5" as="targetPoint" />
          </mxGeometry>
        </mxCell>
        <mxCell id="52U4ZKikLbj1_XuYDyp7-87" value="«interface»&lt;br&gt;&lt;b&gt;IReportRepository&lt;/b&gt;" style="html=1;whiteSpace=wrap;" parent="1" vertex="1">
          <mxGeometry x="510" y="-1260.5" width="205" height="45" as="geometry" />
        </mxCell>
        <mxCell id="52U4ZKikLbj1_XuYDyp7-88" value="«interface»&lt;br&gt;&lt;b&gt;ILogger&amp;lt;ReportStorageSerivce&amp;gt;&amp;nbsp;&lt;/b&gt;" style="html=1;whiteSpace=wrap;" parent="1" vertex="1">
          <mxGeometry x="510" y="-1134" width="205" height="45" as="geometry" />
        </mxCell>
        <mxCell id="52U4ZKikLbj1_XuYDyp7-89" value="Use" style="endArrow=open;endSize=12;dashed=1;html=1;rounded=0;entryX=0;entryY=0.75;entryDx=0;entryDy=0;exitX=1;exitY=0.5;exitDx=0;exitDy=0;" parent="1" target="52U4ZKikLbj1_XuYDyp7-87" edge="1">
          <mxGeometry x="-0.28" width="160" relative="1" as="geometry">
            <mxPoint x="435" y="-1111.5" as="sourcePoint" />
            <mxPoint x="510" y="-800.5" as="targetPoint" />
            <Array as="points" />
            <mxPoint as="offset" />
          </mxGeometry>
        </mxCell>
        <mxCell id="52U4ZKikLbj1_XuYDyp7-90" value="Use" style="endArrow=open;endSize=12;dashed=1;html=1;rounded=0;entryX=0;entryY=0.5;entryDx=0;entryDy=0;exitX=1;exitY=0.5;exitDx=0;exitDy=0;" parent="1" target="52U4ZKikLbj1_XuYDyp7-88" edge="1">
          <mxGeometry x="-0.28" width="160" relative="1" as="geometry">
            <mxPoint x="435" y="-1111.5" as="sourcePoint" />
            <mxPoint x="550" y="-996.5" as="targetPoint" />
            <Array as="points" />
            <mxPoint as="offset" />
          </mxGeometry>
        </mxCell>
        <mxCell id="52U4ZKikLbj1_XuYDyp7-91" value="ReportDistributionService" style="swimlane;fontStyle=0;childLayout=stackLayout;horizontal=1;startSize=26;fillColor=none;horizontalStack=0;resizeParent=1;resizeParentMax=0;resizeLast=0;collapsible=1;marginBottom=0;whiteSpace=wrap;html=1;" parent="1" vertex="1">
          <mxGeometry x="110" y="-1515.5" width="305" height="78" as="geometry" />
        </mxCell>
        <mxCell id="52U4ZKikLbj1_XuYDyp7-92" value="+ DistributeAsync (string productsJson): Task" style="text;strokeColor=none;fillColor=none;align=left;verticalAlign=top;spacingLeft=4;spacingRight=4;overflow=hidden;rotatable=0;points=[[0,0.5],[1,0.5]];portConstraint=eastwest;whiteSpace=wrap;html=1;" parent="52U4ZKikLbj1_XuYDyp7-91" vertex="1">
          <mxGeometry y="26" width="305" height="26" as="geometry" />
        </mxCell>
        <mxCell id="52U4ZKikLbj1_XuYDyp7-93" value="-&amp;nbsp;PrepareReport (string messageJson): void" style="text;strokeColor=none;fillColor=none;align=left;verticalAlign=top;spacingLeft=4;spacingRight=4;overflow=hidden;rotatable=0;points=[[0,0.5],[1,0.5]];portConstraint=eastwest;whiteSpace=wrap;html=1;" parent="52U4ZKikLbj1_XuYDyp7-91" vertex="1">
          <mxGeometry y="52" width="305" height="26" as="geometry" />
        </mxCell>
        <mxCell id="52U4ZKikLbj1_XuYDyp7-94" value="«interface»&lt;br&gt;&lt;b&gt;IReportDistributionService&lt;/b&gt;" style="html=1;whiteSpace=wrap;" parent="1" vertex="1">
          <mxGeometry x="110" y="-1640.5" width="305" height="50" as="geometry" />
        </mxCell>
        <mxCell id="52U4ZKikLbj1_XuYDyp7-95" value="" style="endArrow=block;dashed=1;endFill=0;endSize=12;html=1;rounded=0;entryX=0.5;entryY=1;entryDx=0;entryDy=0;exitX=0.5;exitY=0;exitDx=0;exitDy=0;" parent="1" source="52U4ZKikLbj1_XuYDyp7-91" target="52U4ZKikLbj1_XuYDyp7-94" edge="1">
          <mxGeometry width="160" relative="1" as="geometry">
            <mxPoint x="254" y="-1547.5" as="sourcePoint" />
            <mxPoint x="616" y="-1540.5" as="targetPoint" />
          </mxGeometry>
        </mxCell>
        <mxCell id="52U4ZKikLbj1_XuYDyp7-96" value="«interface»&lt;br&gt;&lt;b&gt;IReportRepository&lt;/b&gt;" style="html=1;whiteSpace=wrap;" parent="1" vertex="1">
          <mxGeometry x="510" y="-1592" width="205" height="45" as="geometry" />
        </mxCell>
        <mxCell id="52U4ZKikLbj1_XuYDyp7-97" value="«interface»&lt;br&gt;&lt;b&gt;IReportStorageSerivce&lt;/b&gt;" style="html=1;whiteSpace=wrap;" parent="1" vertex="1">
          <mxGeometry x="510" y="-1499" width="205" height="45" as="geometry" />
        </mxCell>
        <mxCell id="52U4ZKikLbj1_XuYDyp7-98" value="Use" style="endArrow=open;endSize=12;dashed=1;html=1;rounded=0;entryX=0;entryY=0.75;entryDx=0;entryDy=0;exitX=1;exitY=0.5;exitDx=0;exitDy=0;" parent="1" source="52U4ZKikLbj1_XuYDyp7-92" target="52U4ZKikLbj1_XuYDyp7-96" edge="1">
          <mxGeometry x="-0.28" width="160" relative="1" as="geometry">
            <mxPoint x="612" y="-1110.5" as="sourcePoint" />
            <mxPoint x="510" y="-1090.5" as="targetPoint" />
            <Array as="points" />
            <mxPoint as="offset" />
          </mxGeometry>
        </mxCell>
        <mxCell id="52U4ZKikLbj1_XuYDyp7-99" value="Use" style="endArrow=open;endSize=12;dashed=1;html=1;rounded=0;entryX=0;entryY=0.5;entryDx=0;entryDy=0;exitX=1.003;exitY=1.096;exitDx=0;exitDy=0;exitPerimeter=0;" parent="1" source="52U4ZKikLbj1_XuYDyp7-92" target="52U4ZKikLbj1_XuYDyp7-97" edge="1">
          <mxGeometry x="-0.28" width="160" relative="1" as="geometry">
            <mxPoint x="430" y="-1180.5" as="sourcePoint" />
            <mxPoint x="550" y="-1286.5" as="targetPoint" />
            <Array as="points" />
            <mxPoint as="offset" />
          </mxGeometry>
        </mxCell>
        <mxCell id="52U4ZKikLbj1_XuYDyp7-100" value="«interface»&lt;br&gt;&lt;b&gt;IRabbitMqProducer&lt;/b&gt;" style="html=1;whiteSpace=wrap;" parent="1" vertex="1">
          <mxGeometry x="510" y="-1407.5" width="205" height="45" as="geometry" />
        </mxCell>
        <mxCell id="52U4ZKikLbj1_XuYDyp7-101" value="Use" style="endArrow=open;endSize=12;dashed=1;html=1;rounded=0;entryX=0;entryY=0.25;entryDx=0;entryDy=0;exitX=1;exitY=0.5;exitDx=0;exitDy=0;" parent="1" source="52U4ZKikLbj1_XuYDyp7-93" target="52U4ZKikLbj1_XuYDyp7-100" edge="1">
          <mxGeometry x="-0.28" width="160" relative="1" as="geometry">
            <mxPoint x="435" y="-1169.5" as="sourcePoint" />
            <mxPoint x="550" y="-1172.5" as="targetPoint" />
            <Array as="points" />
            <mxPoint as="offset" />
          </mxGeometry>
        </mxCell>
        <mxCell id="52U4ZKikLbj1_XuYDyp7-102" value="ReportRepository" style="swimlane;fontStyle=0;childLayout=stackLayout;horizontal=1;startSize=26;fillColor=none;horizontalStack=0;resizeParent=1;resizeParentMax=0;resizeLast=0;collapsible=1;marginBottom=0;whiteSpace=wrap;html=1;" parent="1" vertex="1">
          <mxGeometry x="-744.5" y="-738.5" width="300" height="130" as="geometry" />
        </mxCell>
        <mxCell id="52U4ZKikLbj1_XuYDyp7-103" value="+ ReportRepository(InMemoryDbContext context)" style="text;strokeColor=none;fillColor=none;align=left;verticalAlign=top;spacingLeft=4;spacingRight=4;overflow=hidden;rotatable=0;points=[[0,0.5],[1,0.5]];portConstraint=eastwest;whiteSpace=wrap;html=1;" parent="52U4ZKikLbj1_XuYDyp7-102" vertex="1">
          <mxGeometry y="26" width="300" height="26" as="geometry" />
        </mxCell>
        <mxCell id="52U4ZKikLbj1_XuYDyp7-104" value="+&amp;nbsp;Create(ReportEntity report)" style="text;strokeColor=none;fillColor=none;align=left;verticalAlign=top;spacingLeft=4;spacingRight=4;overflow=hidden;rotatable=0;points=[[0,0.5],[1,0.5]];portConstraint=eastwest;whiteSpace=wrap;html=1;" parent="52U4ZKikLbj1_XuYDyp7-102" vertex="1">
          <mxGeometry y="52" width="300" height="26" as="geometry" />
        </mxCell>
        <mxCell id="52U4ZKikLbj1_XuYDyp7-105" value="+&amp;nbsp;Delete(Guid id)" style="text;strokeColor=none;fillColor=none;align=left;verticalAlign=top;spacingLeft=4;spacingRight=4;overflow=hidden;rotatable=0;points=[[0,0.5],[1,0.5]];portConstraint=eastwest;whiteSpace=wrap;html=1;" parent="52U4ZKikLbj1_XuYDyp7-102" vertex="1">
          <mxGeometry y="78" width="300" height="26" as="geometry" />
        </mxCell>
        <mxCell id="52U4ZKikLbj1_XuYDyp7-106" value="+&amp;nbsp;GetAttachmentById(Guid id)" style="text;strokeColor=none;fillColor=none;align=left;verticalAlign=top;spacingLeft=4;spacingRight=4;overflow=hidden;rotatable=0;points=[[0,0.5],[1,0.5]];portConstraint=eastwest;whiteSpace=wrap;html=1;" parent="52U4ZKikLbj1_XuYDyp7-102" vertex="1">
          <mxGeometry y="104" width="300" height="26" as="geometry" />
        </mxCell>
        <mxCell id="52U4ZKikLbj1_XuYDyp7-107" value="«interface»&lt;br&gt;&lt;b&gt;IReportRepository&lt;/b&gt;" style="html=1;whiteSpace=wrap;" parent="1" vertex="1">
          <mxGeometry x="-746.5" y="-826.5" width="305" height="50" as="geometry" />
        </mxCell>
        <mxCell id="52U4ZKikLbj1_XuYDyp7-108" value="" style="endArrow=block;dashed=1;endFill=0;endSize=12;html=1;rounded=0;entryX=0.5;entryY=1;entryDx=0;entryDy=0;" parent="1" source="52U4ZKikLbj1_XuYDyp7-102" target="52U4ZKikLbj1_XuYDyp7-107" edge="1">
          <mxGeometry width="160" relative="1" as="geometry">
            <mxPoint x="-594.5" y="-750.5" as="sourcePoint" />
            <mxPoint x="-231.5" y="-733.5" as="targetPoint" />
          </mxGeometry>
        </mxCell>
        <mxCell id="52U4ZKikLbj1_XuYDyp7-109" value="«interface»&lt;br&gt;&lt;b&gt;IStorageRepository&lt;/b&gt;" style="html=1;whiteSpace=wrap;" parent="1" vertex="1">
          <mxGeometry x="-370" y="-826.5" width="350" height="50" as="geometry" />
        </mxCell>
        <mxCell id="52U4ZKikLbj1_XuYDyp7-110" value="" style="endArrow=block;dashed=1;endFill=0;endSize=12;html=1;rounded=0;entryX=0.5;entryY=1;entryDx=0;entryDy=0;exitX=0.5;exitY=0;exitDx=0;exitDy=0;" parent="1" source="52U4ZKikLbj1_XuYDyp7-111" target="52U4ZKikLbj1_XuYDyp7-109" edge="1">
          <mxGeometry width="160" relative="1" as="geometry">
            <mxPoint x="-217.5" y="-738.5" as="sourcePoint" />
            <mxPoint x="145" y="-733.5" as="targetPoint" />
          </mxGeometry>
        </mxCell>
        <mxCell id="52U4ZKikLbj1_XuYDyp7-111" value="StorageRepository" style="swimlane;fontStyle=0;childLayout=stackLayout;horizontal=1;startSize=26;fillColor=none;horizontalStack=0;resizeParent=1;resizeParentMax=0;resizeLast=0;collapsible=1;marginBottom=0;whiteSpace=wrap;html=1;" parent="1" vertex="1">
          <mxGeometry x="-370" y="-738.5" width="350" height="104" as="geometry" />
        </mxCell>
        <mxCell id="52U4ZKikLbj1_XuYDyp7-112" value="+ StorageRepository (IHttpClientFactory httpClientFactory)" style="text;strokeColor=none;fillColor=none;align=left;verticalAlign=top;spacingLeft=4;spacingRight=4;overflow=hidden;rotatable=0;points=[[0,0.5],[1,0.5]];portConstraint=eastwest;whiteSpace=wrap;html=1;" parent="52U4ZKikLbj1_XuYDyp7-111" vertex="1">
          <mxGeometry y="26" width="350" height="26" as="geometry" />
        </mxCell>
        <mxCell id="52U4ZKikLbj1_XuYDyp7-113" value="+ GetExpiredProductsAsync ()" style="text;strokeColor=none;fillColor=none;align=left;verticalAlign=top;spacingLeft=4;spacingRight=4;overflow=hidden;rotatable=0;points=[[0,0.5],[1,0.5]];portConstraint=eastwest;whiteSpace=wrap;html=1;" parent="52U4ZKikLbj1_XuYDyp7-111" vertex="1">
          <mxGeometry y="52" width="350" height="26" as="geometry" />
        </mxCell>
        <mxCell id="52U4ZKikLbj1_XuYDyp7-114" value="..." style="text;strokeColor=none;fillColor=none;align=left;verticalAlign=top;spacingLeft=4;spacingRight=4;overflow=hidden;rotatable=0;points=[[0,0.5],[1,0.5]];portConstraint=eastwest;whiteSpace=wrap;html=1;" parent="52U4ZKikLbj1_XuYDyp7-111" vertex="1">
          <mxGeometry y="78" width="350" height="26" as="geometry" />
        </mxCell>
        <mxCell id="52U4ZKikLbj1_XuYDyp7-115" value="«interface»&lt;br&gt;&lt;b&gt;ISupplierRepository&lt;/b&gt;" style="html=1;whiteSpace=wrap;" parent="1" vertex="1">
          <mxGeometry x="50" y="-826.5" width="350" height="50" as="geometry" />
        </mxCell>
        <mxCell id="52U4ZKikLbj1_XuYDyp7-116" value="" style="endArrow=block;dashed=1;endFill=0;endSize=12;html=1;rounded=0;entryX=0.5;entryY=1;entryDx=0;entryDy=0;exitX=0.5;exitY=0;exitDx=0;exitDy=0;" parent="1" source="52U4ZKikLbj1_XuYDyp7-117" target="52U4ZKikLbj1_XuYDyp7-115" edge="1">
          <mxGeometry width="160" relative="1" as="geometry">
            <mxPoint x="202.5" y="-738.5" as="sourcePoint" />
            <mxPoint x="565" y="-733.5" as="targetPoint" />
          </mxGeometry>
        </mxCell>
        <mxCell id="52U4ZKikLbj1_XuYDyp7-117" value="SupplierRepository" style="swimlane;fontStyle=0;childLayout=stackLayout;horizontal=1;startSize=26;fillColor=none;horizontalStack=0;resizeParent=1;resizeParentMax=0;resizeLast=0;collapsible=1;marginBottom=0;whiteSpace=wrap;html=1;" parent="1" vertex="1">
          <mxGeometry x="50" y="-738.5" width="350" height="130" as="geometry" />
        </mxCell>
        <mxCell id="52U4ZKikLbj1_XuYDyp7-118" value="+ StorageRepository (IHttpClientFactory httpClientFactory)" style="text;strokeColor=none;fillColor=none;align=left;verticalAlign=top;spacingLeft=4;spacingRight=4;overflow=hidden;rotatable=0;points=[[0,0.5],[1,0.5]];portConstraint=eastwest;whiteSpace=wrap;html=1;" parent="52U4ZKikLbj1_XuYDyp7-117" vertex="1">
          <mxGeometry y="26" width="350" height="26" as="geometry" />
        </mxCell>
        <mxCell id="52U4ZKikLbj1_XuYDyp7-119" value="+ GetActualProductPriceAsync (Guid productId)" style="text;strokeColor=none;fillColor=none;align=left;verticalAlign=top;spacingLeft=4;spacingRight=4;overflow=hidden;rotatable=0;points=[[0,0.5],[1,0.5]];portConstraint=eastwest;whiteSpace=wrap;html=1;" parent="52U4ZKikLbj1_XuYDyp7-117" vertex="1">
          <mxGeometry y="52" width="350" height="26" as="geometry" />
        </mxCell>
        <mxCell id="52U4ZKikLbj1_XuYDyp7-120" value="+&amp;nbsp;GetShopDetailsAsync (Guid shopId)" style="text;strokeColor=none;fillColor=none;align=left;verticalAlign=top;spacingLeft=4;spacingRight=4;overflow=hidden;rotatable=0;points=[[0,0.5],[1,0.5]];portConstraint=eastwest;whiteSpace=wrap;html=1;" parent="52U4ZKikLbj1_XuYDyp7-117" vertex="1">
          <mxGeometry y="78" width="350" height="26" as="geometry" />
        </mxCell>
        <mxCell id="52U4ZKikLbj1_XuYDyp7-121" value="..." style="text;strokeColor=none;fillColor=none;align=left;verticalAlign=top;spacingLeft=4;spacingRight=4;overflow=hidden;rotatable=0;points=[[0,0.5],[1,0.5]];portConstraint=eastwest;whiteSpace=wrap;html=1;" parent="52U4ZKikLbj1_XuYDyp7-117" vertex="1">
          <mxGeometry y="104" width="350" height="26" as="geometry" />
        </mxCell>
      </root>
    </mxGraphModel>
  </diagram>
  <diagram id="uK6f0g9S9dNciJle8SxW" name="Sequence">
    <mxGraphModel dx="1143" dy="566" grid="1" gridSize="10" guides="1" tooltips="1" connect="1" arrows="1" fold="1" page="1" pageScale="1" pageWidth="850" pageHeight="1100" math="0" shadow="0">
      <root>
        <mxCell id="0" />
        <mxCell id="1" parent="0" />
        <mxCell id="5bdBH71OebbFIAX-Ul3I-3" value=":FoodStorage" style="shape=umlLifeline;perimeter=lifelinePerimeter;whiteSpace=wrap;html=1;container=1;dropTarget=0;collapsible=0;recursiveResize=0;outlineConnect=0;portConstraint=eastwest;newEdgeStyle={&quot;curved&quot;:0,&quot;rounded&quot;:0};" parent="1" vertex="1">
          <mxGeometry x="150" y="30" width="100" height="400" as="geometry" />
        </mxCell>
        <mxCell id="5bdBH71OebbFIAX-Ul3I-4" value="" style="html=1;points=[[0,0,0,0,5],[0,1,0,0,-5],[1,0,0,0,5],[1,1,0,0,-5]];perimeter=orthogonalPerimeter;outlineConnect=0;targetShapes=umlLifeline;portConstraint=eastwest;newEdgeStyle={&quot;curved&quot;:0,&quot;rounded&quot;:0};" parent="5bdBH71OebbFIAX-Ul3I-3" vertex="1">
          <mxGeometry x="45" y="61" width="10" height="79" as="geometry" />
        </mxCell>
        <mxCell id="HSTf7hRw-9jXeQbjNLKw-1" value="" style="html=1;points=[[0,0,0,0,5],[0,1,0,0,-5],[1,0,0,0,5],[1,1,0,0,-5]];perimeter=orthogonalPerimeter;outlineConnect=0;targetShapes=umlLifeline;portConstraint=eastwest;newEdgeStyle={&quot;curved&quot;:0,&quot;rounded&quot;:0};" vertex="1" parent="5bdBH71OebbFIAX-Ul3I-3">
          <mxGeometry x="55" y="110" width="10" height="20" as="geometry" />
        </mxCell>
        <mxCell id="HSTf7hRw-9jXeQbjNLKw-2" value="Event expiry food" style="html=1;align=left;spacingLeft=2;endArrow=block;rounded=0;edgeStyle=orthogonalEdgeStyle;curved=0;rounded=0;" edge="1" parent="5bdBH71OebbFIAX-Ul3I-3" target="HSTf7hRw-9jXeQbjNLKw-1">
          <mxGeometry relative="1" as="geometry">
            <mxPoint x="56" y="80" as="sourcePoint" />
            <Array as="points">
              <mxPoint x="86" y="110" />
            </Array>
          </mxGeometry>
        </mxCell>
        <mxCell id="5bdBH71OebbFIAX-Ul3I-7" value=":RabbitMq" style="shape=umlLifeline;perimeter=lifelinePerimeter;whiteSpace=wrap;html=1;container=1;dropTarget=0;collapsible=0;recursiveResize=0;outlineConnect=0;portConstraint=eastwest;newEdgeStyle={&quot;curved&quot;:0,&quot;rounded&quot;:0};" parent="1" vertex="1">
          <mxGeometry x="290" y="30" width="100" height="400" as="geometry" />
        </mxCell>
        <mxCell id="5bdBH71OebbFIAX-Ul3I-8" value="" style="html=1;points=[[0,0,0,0,5],[0,1,0,0,-5],[1,0,0,0,5],[1,1,0,0,-5]];perimeter=orthogonalPerimeter;outlineConnect=0;targetShapes=umlLifeline;portConstraint=eastwest;newEdgeStyle={&quot;curved&quot;:0,&quot;rounded&quot;:0};" parent="5bdBH71OebbFIAX-Ul3I-7" vertex="1">
          <mxGeometry x="45" y="140" width="10" height="40" as="geometry" />
        </mxCell>
        <mxCell id="5bdBH71OebbFIAX-Ul3I-13" value=":FoodNotifier" style="shape=umlLifeline;perimeter=lifelinePerimeter;whiteSpace=wrap;html=1;container=1;dropTarget=0;collapsible=0;recursiveResize=0;outlineConnect=0;portConstraint=eastwest;newEdgeStyle={&quot;curved&quot;:0,&quot;rounded&quot;:0};" parent="1" vertex="1">
          <mxGeometry x="555" y="30" width="100" height="400" as="geometry" />
        </mxCell>
        <mxCell id="5bdBH71OebbFIAX-Ul3I-14" value="" style="html=1;points=[[0,0,0,0,5],[0,1,0,0,-5],[1,0,0,0,5],[1,1,0,0,-5]];perimeter=orthogonalPerimeter;outlineConnect=0;targetShapes=umlLifeline;portConstraint=eastwest;newEdgeStyle={&quot;curved&quot;:0,&quot;rounded&quot;:0};" parent="5bdBH71OebbFIAX-Ul3I-13" vertex="1">
          <mxGeometry x="45" y="270" width="10" height="90" as="geometry" />
        </mxCell>
        <mxCell id="XplSvdKFXqR8WgkHAnnk-2" value="" style="html=1;points=[[0,0,0,0,5],[0,1,0,0,-5],[1,0,0,0,5],[1,1,0,0,-5]];perimeter=orthogonalPerimeter;outlineConnect=0;targetShapes=umlLifeline;portConstraint=eastwest;newEdgeStyle={&quot;curved&quot;:0,&quot;rounded&quot;:0};" parent="5bdBH71OebbFIAX-Ul3I-13" vertex="1">
          <mxGeometry x="55" y="330" width="10" height="20" as="geometry" />
        </mxCell>
        <mxCell id="XplSvdKFXqR8WgkHAnnk-3" value="Send()" style="html=1;align=left;spacingLeft=2;endArrow=block;rounded=0;edgeStyle=orthogonalEdgeStyle;curved=0;rounded=0;" parent="5bdBH71OebbFIAX-Ul3I-13" target="XplSvdKFXqR8WgkHAnnk-2" edge="1">
          <mxGeometry x="-0.0124" y="4" relative="1" as="geometry">
            <mxPoint x="56" y="300" as="sourcePoint" />
            <Array as="points">
              <mxPoint x="86" y="330" />
            </Array>
            <mxPoint as="offset" />
          </mxGeometry>
        </mxCell>
        <mxCell id="5bdBH71OebbFIAX-Ul3I-17" value="Notification" style="html=1;verticalAlign=bottom;endArrow=block;curved=0;rounded=0;" parent="1" edge="1">
          <mxGeometry width="80" relative="1" as="geometry">
            <mxPoint x="204.9999999999999" y="170" as="sourcePoint" />
            <mxPoint x="335" y="170" as="targetPoint" />
            <Array as="points" />
          </mxGeometry>
        </mxCell>
        <mxCell id="HSTf7hRw-9jXeQbjNLKw-3" value=":FoodPlanner" style="shape=umlLifeline;perimeter=lifelinePerimeter;whiteSpace=wrap;html=1;container=1;dropTarget=0;collapsible=0;recursiveResize=0;outlineConnect=0;portConstraint=eastwest;newEdgeStyle={&quot;curved&quot;:0,&quot;rounded&quot;:0};" vertex="1" parent="1">
          <mxGeometry x="425" y="30" width="100" height="400" as="geometry" />
        </mxCell>
        <mxCell id="HSTf7hRw-9jXeQbjNLKw-4" value="" style="html=1;points=[[0,0,0,0,5],[0,1,0,0,-5],[1,0,0,0,5],[1,1,0,0,-5]];perimeter=orthogonalPerimeter;outlineConnect=0;targetShapes=umlLifeline;portConstraint=eastwest;newEdgeStyle={&quot;curved&quot;:0,&quot;rounded&quot;:0};" vertex="1" parent="HSTf7hRw-9jXeQbjNLKw-3">
          <mxGeometry x="45" y="180" width="10" height="90" as="geometry" />
        </mxCell>
        <mxCell id="5bdBH71OebbFIAX-Ul3I-6" value="GenerateReport()" style="html=1;align=left;spacingLeft=2;endArrow=block;rounded=0;edgeStyle=orthogonalEdgeStyle;curved=0;rounded=0;" parent="HSTf7hRw-9jXeQbjNLKw-3" target="5bdBH71OebbFIAX-Ul3I-5" edge="1">
          <mxGeometry relative="1" as="geometry">
            <mxPoint x="56" y="200.02" as="sourcePoint" />
            <Array as="points">
              <mxPoint x="86" y="230.02" />
            </Array>
          </mxGeometry>
        </mxCell>
        <mxCell id="5bdBH71OebbFIAX-Ul3I-5" value="" style="html=1;points=[[0,0,0,0,5],[0,1,0,0,-5],[1,0,0,0,5],[1,1,0,0,-5]];perimeter=orthogonalPerimeter;outlineConnect=0;targetShapes=umlLifeline;portConstraint=eastwest;newEdgeStyle={&quot;curved&quot;:0,&quot;rounded&quot;:0};" parent="HSTf7hRw-9jXeQbjNLKw-3" vertex="1">
          <mxGeometry x="55" y="230.02" width="10" height="20" as="geometry" />
        </mxCell>
        <mxCell id="HSTf7hRw-9jXeQbjNLKw-8" value="" style="endArrow=classic;html=1;rounded=0;" edge="1" parent="1" target="HSTf7hRw-9jXeQbjNLKw-3">
          <mxGeometry width="50" height="50" relative="1" as="geometry">
            <mxPoint x="339.81034482758605" y="210" as="sourcePoint" />
            <mxPoint x="400" y="210" as="targetPoint" />
          </mxGeometry>
        </mxCell>
        <mxCell id="HSTf7hRw-9jXeQbjNLKw-9" value="" style="endArrow=classic;html=1;rounded=0;" edge="1" parent="1">
          <mxGeometry width="50" height="50" relative="1" as="geometry">
            <mxPoint x="470.00034482758605" y="300.0000000000001" as="sourcePoint" />
            <mxPoint x="600.19" y="300.0000000000001" as="targetPoint" />
          </mxGeometry>
        </mxCell>
      </root>
    </mxGraphModel>
  </diagram>
  <diagram id="ioBBS5P8XIXsu08cCkWI" name="Use cases">
    <mxGraphModel dx="1658" dy="820" grid="1" gridSize="10" guides="1" tooltips="1" connect="1" arrows="1" fold="1" page="1" pageScale="1" pageWidth="850" pageHeight="1100" math="0" shadow="0">
      <root>
        <mxCell id="0" />
        <mxCell id="1" parent="0" />
        <mxCell id="VgZjXtEQeMnsox9mjJtd-12" value="Аунтентификация на портале" style="ellipse;whiteSpace=wrap;html=1;" parent="1" vertex="1">
          <mxGeometry x="320" y="50" width="191.87" height="60" as="geometry" />
        </mxCell>
        <mxCell id="VgZjXtEQeMnsox9mjJtd-27" value="Генерация отчета" style="ellipse;whiteSpace=wrap;html=1;" parent="1" vertex="1">
          <mxGeometry x="320" y="150" width="191.87" height="50" as="geometry" />
        </mxCell>
        <mxCell id="VgZjXtEQeMnsox9mjJtd-46" value="Менеджер" style="shape=umlActor;verticalLabelPosition=bottom;verticalAlign=top;html=1;outlineConnect=0;" parent="1" vertex="1">
          <mxGeometry x="120" y="150" width="30" height="60" as="geometry" />
        </mxCell>
        <mxCell id="VgZjXtEQeMnsox9mjJtd-48" value="" style="endArrow=classic;html=1;rounded=0;entryX=0;entryY=0.5;entryDx=0;entryDy=0;" parent="1" target="VgZjXtEQeMnsox9mjJtd-12" edge="1">
          <mxGeometry width="50" height="50" relative="1" as="geometry">
            <mxPoint x="160" y="190" as="sourcePoint" />
            <mxPoint x="340" y="140" as="targetPoint" />
          </mxGeometry>
        </mxCell>
        <mxCell id="VgZjXtEQeMnsox9mjJtd-49" value="" style="endArrow=classic;html=1;rounded=0;entryX=0;entryY=0.5;entryDx=0;entryDy=0;" parent="1" target="VgZjXtEQeMnsox9mjJtd-50" edge="1">
          <mxGeometry width="50" height="50" relative="1" as="geometry">
            <mxPoint x="160" y="190" as="sourcePoint" />
            <mxPoint x="330" y="295" as="targetPoint" />
          </mxGeometry>
        </mxCell>
        <mxCell id="VgZjXtEQeMnsox9mjJtd-50" value="Сброс пароля" style="ellipse;whiteSpace=wrap;html=1;" parent="1" vertex="1">
          <mxGeometry x="320" y="240" width="191.87" height="50" as="geometry" />
        </mxCell>
        <mxCell id="5Y5W2KsQQyhg9H7RgYWC-1" value="" style="endArrow=classic;html=1;rounded=0;entryX=0;entryY=0.5;entryDx=0;entryDy=0;" parent="1" target="VgZjXtEQeMnsox9mjJtd-27" edge="1">
          <mxGeometry width="50" height="50" relative="1" as="geometry">
            <mxPoint x="160" y="190" as="sourcePoint" />
            <mxPoint x="450" y="400" as="targetPoint" />
          </mxGeometry>
        </mxCell>
      </root>
    </mxGraphModel>
  </diagram>
  <diagram id="dYs0zpo3CWF1F6UOnzZ6" name="Page-4">
    <mxGraphModel dx="810" dy="469" grid="1" gridSize="10" guides="1" tooltips="1" connect="1" arrows="1" fold="1" page="1" pageScale="1" pageWidth="850" pageHeight="1100" math="0" shadow="0">
      <root>
        <mxCell id="0" />
        <mxCell id="1" parent="0" />
        <mxCell id="KvAZAiNvX2JYKfLeyZtB-1" value=":FoodSuplier" style="shape=umlLifeline;perimeter=lifelinePerimeter;whiteSpace=wrap;html=1;container=1;dropTarget=0;collapsible=0;recursiveResize=0;outlineConnect=0;portConstraint=eastwest;newEdgeStyle={&quot;curved&quot;:0,&quot;rounded&quot;:0};" vertex="1" parent="1">
          <mxGeometry x="150" y="30" width="100" height="400" as="geometry" />
        </mxCell>
        <mxCell id="KvAZAiNvX2JYKfLeyZtB-2" value="" style="html=1;points=[[0,0,0,0,5],[0,1,0,0,-5],[1,0,0,0,5],[1,1,0,0,-5]];perimeter=orthogonalPerimeter;outlineConnect=0;targetShapes=umlLifeline;portConstraint=eastwest;newEdgeStyle={&quot;curved&quot;:0,&quot;rounded&quot;:0};" vertex="1" parent="KvAZAiNvX2JYKfLeyZtB-1">
          <mxGeometry x="45" y="61" width="10" height="269" as="geometry" />
        </mxCell>
        <mxCell id="KvAZAiNvX2JYKfLeyZtB-21" value="" style="html=1;points=[[0,0,0,0,5],[0,1,0,0,-5],[1,0,0,0,5],[1,1,0,0,-5]];perimeter=orthogonalPerimeter;outlineConnect=0;targetShapes=umlLifeline;portConstraint=eastwest;newEdgeStyle={&quot;curved&quot;:0,&quot;rounded&quot;:0};" vertex="1" parent="KvAZAiNvX2JYKfLeyZtB-1">
          <mxGeometry x="55" y="230" width="10" height="20" as="geometry" />
        </mxCell>
        <mxCell id="KvAZAiNvX2JYKfLeyZtB-22" value="Parce" style="html=1;align=left;spacingLeft=2;endArrow=block;rounded=0;edgeStyle=orthogonalEdgeStyle;curved=0;rounded=0;" edge="1" parent="KvAZAiNvX2JYKfLeyZtB-1" target="KvAZAiNvX2JYKfLeyZtB-21">
          <mxGeometry relative="1" as="geometry">
            <mxPoint x="56" y="200" as="sourcePoint" />
            <Array as="points">
              <mxPoint x="86" y="230" />
            </Array>
          </mxGeometry>
        </mxCell>
        <mxCell id="KvAZAiNvX2JYKfLeyZtB-5" value=":External Source" style="shape=umlLifeline;perimeter=lifelinePerimeter;whiteSpace=wrap;html=1;container=1;dropTarget=0;collapsible=0;recursiveResize=0;outlineConnect=0;portConstraint=eastwest;newEdgeStyle={&quot;curved&quot;:0,&quot;rounded&quot;:0};" vertex="1" parent="1">
          <mxGeometry x="290" y="30" width="100" height="400" as="geometry" />
        </mxCell>
        <mxCell id="KvAZAiNvX2JYKfLeyZtB-6" value="" style="html=1;points=[[0,0,0,0,5],[0,1,0,0,-5],[1,0,0,0,5],[1,1,0,0,-5]];perimeter=orthogonalPerimeter;outlineConnect=0;targetShapes=umlLifeline;portConstraint=eastwest;newEdgeStyle={&quot;curved&quot;:0,&quot;rounded&quot;:0};" vertex="1" parent="KvAZAiNvX2JYKfLeyZtB-5">
          <mxGeometry x="45" y="140" width="10" height="40" as="geometry" />
        </mxCell>
        <mxCell id="KvAZAiNvX2JYKfLeyZtB-11" value="Request" style="html=1;verticalAlign=bottom;endArrow=block;curved=0;rounded=0;" edge="1" parent="1">
          <mxGeometry width="80" relative="1" as="geometry">
            <mxPoint x="204.9999999999999" y="170" as="sourcePoint" />
            <mxPoint x="335" y="170" as="targetPoint" />
            <Array as="points" />
          </mxGeometry>
        </mxCell>
        <mxCell id="KvAZAiNvX2JYKfLeyZtB-16" value="" style="endArrow=classic;html=1;rounded=0;" edge="1" parent="1" target="KvAZAiNvX2JYKfLeyZtB-1">
          <mxGeometry width="50" height="50" relative="1" as="geometry">
            <mxPoint x="339.81034482758605" y="210" as="sourcePoint" />
            <mxPoint x="474.5" y="210" as="targetPoint" />
          </mxGeometry>
        </mxCell>
        <mxCell id="KvAZAiNvX2JYKfLeyZtB-24" value="Html response" style="edgeLabel;html=1;align=center;verticalAlign=middle;resizable=0;points=[];" vertex="1" connectable="0" parent="KvAZAiNvX2JYKfLeyZtB-16">
          <mxGeometry x="0.0615" relative="1" as="geometry">
            <mxPoint as="offset" />
          </mxGeometry>
        </mxCell>
        <mxCell id="KvAZAiNvX2JYKfLeyZtB-18" value=":Supplier DB" style="shape=umlLifeline;perimeter=lifelinePerimeter;whiteSpace=wrap;html=1;container=1;dropTarget=0;collapsible=0;recursiveResize=0;outlineConnect=0;portConstraint=eastwest;newEdgeStyle={&quot;curved&quot;:0,&quot;rounded&quot;:0};" vertex="1" parent="1">
          <mxGeometry x="420" y="30" width="100" height="400" as="geometry" />
        </mxCell>
        <mxCell id="KvAZAiNvX2JYKfLeyZtB-19" value="" style="html=1;points=[[0,0,0,0,5],[0,1,0,0,-5],[1,0,0,0,5],[1,1,0,0,-5]];perimeter=orthogonalPerimeter;outlineConnect=0;targetShapes=umlLifeline;portConstraint=eastwest;newEdgeStyle={&quot;curved&quot;:0,&quot;rounded&quot;:0};" vertex="1" parent="KvAZAiNvX2JYKfLeyZtB-18">
          <mxGeometry x="45" y="270" width="10" height="50" as="geometry" />
        </mxCell>
        <mxCell id="KvAZAiNvX2JYKfLeyZtB-25" value="" style="endArrow=classic;html=1;rounded=0;entryX=0.5;entryY=0;entryDx=0;entryDy=0;entryPerimeter=0;" edge="1" parent="1" target="KvAZAiNvX2JYKfLeyZtB-19">
          <mxGeometry width="50" height="50" relative="1" as="geometry">
            <mxPoint x="207.75" y="300" as="sourcePoint" />
            <mxPoint x="460" y="300" as="targetPoint" />
          </mxGeometry>
        </mxCell>
        <mxCell id="KvAZAiNvX2JYKfLeyZtB-27" value="SaveAsync" style="edgeLabel;html=1;align=center;verticalAlign=middle;resizable=0;points=[];" vertex="1" connectable="0" parent="KvAZAiNvX2JYKfLeyZtB-25">
          <mxGeometry x="-0.1592" y="-2" relative="1" as="geometry">
            <mxPoint x="22" y="-2" as="offset" />
          </mxGeometry>
        </mxCell>
        <mxCell id="KvAZAiNvX2JYKfLeyZtB-28" value="" style="endArrow=classic;html=1;rounded=0;" edge="1" parent="1">
          <mxGeometry width="50" height="50" relative="1" as="geometry">
            <mxPoint x="472.25" y="350" as="sourcePoint" />
            <mxPoint x="207.75" y="350" as="targetPoint" />
          </mxGeometry>
        </mxCell>
      </root>
    </mxGraphModel>
  </diagram>
</mxfile>
